<svg width="25" height="25" viewBox="0 0 25 25" fill="none" xmlns="http://www.w3.org/2000/svg">
<g clip-path="url(#clip0_4_24)">
<path d="M21.5313 3.84735C19.1718 1.38445 15.907 -0.00549174 12.4962 0.0007841C5.60336 -0.00789747 0.00850836 5.57284 -0.00017321 12.4657C-0.0044617 15.8741 1.38532 19.1358 3.84639 21.4937C3.85356 21.5008 3.85622 21.5115 3.86334 21.5178C3.93561 21.5874 4.01416 21.6464 4.08738 21.7133C4.28821 21.8918 4.48904 22.0766 4.70058 22.2488C4.81392 22.3381 4.93175 22.4273 5.0478 22.5094C5.24773 22.6585 5.44767 22.8075 5.6565 22.945C5.79844 23.0343 5.94482 23.1235 6.09026 23.2128C6.28304 23.3289 6.47497 23.4457 6.67402 23.552C6.84274 23.6412 7.01496 23.718 7.18634 23.7992C7.37378 23.8885 7.55855 23.9777 7.75043 24.058C7.94232 24.1383 8.13514 24.2008 8.32969 24.2704C8.52424 24.34 8.69207 24.4043 8.87862 24.4614C9.08928 24.5248 9.30527 24.5739 9.51948 24.6265C9.69798 24.6703 9.87114 24.7203 10.055 24.756C10.3013 24.8051 10.5513 24.8363 10.8012 24.8703C10.9557 24.8917 11.1065 24.922 11.2627 24.9372C11.6715 24.9774 12.0838 24.9997 12.4997 24.9997C12.9157 24.9997 13.328 24.9774 13.7368 24.9372C13.893 24.922 14.0438 24.8917 14.1982 24.8703C14.4482 24.8363 14.698 24.8051 14.9444 24.756C15.1229 24.7203 15.3015 24.6667 15.48 24.6265C15.6942 24.5739 15.9102 24.5248 16.1208 24.4614C16.3074 24.4043 16.4876 24.3347 16.6698 24.2704C16.8519 24.2062 17.0589 24.1366 17.249 24.058C17.4391 23.9795 17.6257 23.8875 17.8131 23.7992C17.9845 23.718 18.1568 23.6412 18.3254 23.552C18.5245 23.4457 18.7164 23.3288 18.9092 23.2128C19.0547 23.1235 19.2011 23.0423 19.3429 22.945C19.5518 22.8076 19.7518 22.6585 19.9516 22.5094C20.0677 22.4202 20.1855 22.3398 20.2989 22.2488C20.5104 22.0792 20.7112 21.899 20.9121 21.7133C20.9852 21.6464 21.0638 21.5875 21.1361 21.5178C21.1432 21.5116 21.1459 21.5009 21.1531 21.4937C26.1305 16.7252 26.2998 8.82466 21.5313 3.84735ZM19.5252 20.5592C19.3628 20.702 19.1949 20.8377 19.0254 20.9689C18.9254 21.0457 18.8255 21.1215 18.7228 21.1947C18.5612 21.3116 18.397 21.4223 18.2301 21.5285C18.1087 21.6062 17.9846 21.6811 17.8597 21.7544C17.7025 21.8436 17.5428 21.9328 17.3812 22.0221C17.2384 22.0953 17.0929 22.1641 16.9466 22.2319C16.8002 22.2997 16.6386 22.372 16.4806 22.4354C16.3226 22.4988 16.1549 22.5585 15.9897 22.6139C15.8389 22.6657 15.6881 22.7192 15.5354 22.7647C15.3569 22.8183 15.1704 22.862 14.9856 22.9066C14.841 22.9405 14.6982 22.9789 14.5518 23.0075C14.3403 23.0486 14.1243 23.0771 13.9074 23.1066C13.7842 23.1226 13.662 23.145 13.5378 23.1575C13.1951 23.1905 12.8479 23.2101 12.4971 23.2101C12.1463 23.2101 11.7991 23.1905 11.4564 23.1575C11.3323 23.145 11.21 23.1226 11.0868 23.1066C10.8699 23.0771 10.6539 23.0486 10.4424 23.0075C10.296 22.979 10.1532 22.9406 10.0086 22.9066C9.82386 22.862 9.63998 22.8174 9.45882 22.7647C9.30621 22.7192 9.15533 22.6657 9.0045 22.6139C8.83939 22.5568 8.67423 22.4987 8.51357 22.4354C8.35291 22.372 8.20119 22.3024 8.04764 22.2319C7.8941 22.1614 7.75577 22.0953 7.61299 22.0221C7.45144 21.9382 7.29167 21.8498 7.13456 21.7544C7.00962 21.6812 6.88552 21.6062 6.76413 21.5285C6.59725 21.4223 6.43298 21.3116 6.27143 21.1947C6.16876 21.1215 6.06882 21.0457 5.96883 20.9689C5.79922 20.8377 5.63145 20.7011 5.46901 20.5592C5.42973 20.5297 5.39401 20.4922 5.35568 20.4583C5.39558 17.422 7.34616 14.7409 10.2228 13.7685C11.6612 14.4527 13.3312 14.4527 14.7696 13.7685C17.6462 14.7409 19.5968 17.4219 19.6368 20.4583C19.5993 20.4922 19.5635 20.5262 19.5252 20.5592ZM9.38377 7.15723C10.3502 5.43848 12.5269 4.82863 14.2457 5.79506C15.9644 6.76148 16.5743 8.9382 15.6078 10.6569C15.2872 11.2272 14.816 11.6984 14.2457 12.0191C14.2412 12.0191 14.2358 12.0191 14.2305 12.0245C13.9938 12.1562 13.7436 12.2621 13.4843 12.3404C13.4379 12.3538 13.395 12.3717 13.346 12.3833C13.2567 12.4065 13.163 12.4225 13.071 12.4386C12.8979 12.4689 12.7228 12.4865 12.5471 12.4913H12.4453C12.2697 12.4865 12.0945 12.4689 11.9214 12.4386C11.8321 12.4225 11.7375 12.4065 11.6465 12.3833C11.5992 12.3717 11.5572 12.3538 11.5082 12.3404C11.2488 12.2621 10.9987 12.1562 10.762 12.0245L10.7459 12.0191C9.0272 11.0527 8.41734 8.87597 9.38377 7.15723ZM21.2202 18.6884C20.6474 16.0168 18.8882 13.7519 16.4414 12.536C18.4415 10.3572 18.2967 6.96942 16.1178 4.96926C13.939 2.9691 10.5513 3.11397 8.55112 5.29278C6.67078 7.34111 6.67078 10.4877 8.55112 12.536C6.10433 13.752 4.34511 16.0168 3.77234 18.6884C0.349705 13.8674 1.48333 7.18453 6.30437 3.76189C11.1254 0.339261 17.8082 1.47289 21.2309 6.29393C22.5175 8.10624 23.2081 10.2741 23.207 12.4967C23.207 14.7173 22.5123 16.8823 21.2202 18.6884Z" fill="black"/>
</g>
<defs>
<clipPath id="clip0_4_24">
<rect width="25" height="25" fill="white"/>
</clipPath>
</defs>
</svg>
