<svg width="50" height="50" viewBox="0 0 50 50" fill="none" xmlns="http://www.w3.org/2000/svg">
<path d="M26.0869 25.1573H4.29063C1.921 25.1573 0 23.2363 0 20.8667C0 18.497 1.921 16.576 4.29063 16.576H17.5058H16.0756H21.8986C23.9096 16.576 25.6508 17.9728 26.0871 19.9359V25.1572H26.0869V25.1573Z" fill="#C92B00"/>
<path d="M44.5048 24.2273C45.3807 29.9202 40.976 35.0543 35.2162 35.0543H13.6548C9.7077 35.0543 6.49979 31.8699 6.47089 27.9228C6.47089 26.4962 7.36483 25.2226 8.70643 24.7375L33.0535 15.9352C33.1265 15.9055 33.1997 15.8769 33.2728 15.8495C37.8447 14.1349 42.8708 16.9458 43.9399 21.7102L44.5048 24.2273Z" fill="#005359"/>
<path d="M41.8293 24.1613V26.8892C41.8293 29.8758 39.4081 32.297 36.4215 32.297H27.1469C24.1603 32.297 21.7391 29.8758 21.7391 26.8892C21.7391 24.4902 23.3195 22.3779 25.621 21.701L34.8956 18.9732C38.3593 17.9545 41.8293 20.551 41.8293 24.1613Z" fill="#007784"/>
<path d="M0 37.2282C0 33.0261 3.40654 29.6195 7.60869 29.6195C11.8108 29.6195 15.2174 33.0261 15.2174 37.2282C15.2174 41.4303 11.8108 44.8369 7.60869 44.8369C3.40654 44.8369 0 41.4304 0 37.2282Z" fill="#3A3F3F"/>
<path d="M11.9565 37.2282C11.9565 39.6294 10.01 41.5761 7.60869 41.5761C5.20742 41.5761 3.26083 39.6295 3.26083 37.2282C3.26083 34.827 5.20742 32.8804 7.60869 32.8804C10.01 32.8804 11.9565 34.8271 11.9565 37.2282Z" fill="#D8962B"/>
<path d="M44.0692 32.7637C42.2277 34.9102 39.5494 36.1413 36.7213 36.1413C36.121 36.1413 35.6344 35.6547 35.6344 35.0544C35.6344 34.4541 36.121 33.9675 36.7213 33.9675C38.9145 33.9675 40.9913 33.0128 42.4192 31.3484C43.8473 29.6839 44.475 27.486 44.1415 25.3184L42.4381 14.2465C41.8706 10.5578 38.7499 7.88049 35.0179 7.88049H25C24.3997 7.88049 23.9131 7.39387 23.9131 6.79358C23.9131 6.19329 24.3997 5.70667 25 5.70667H35.018C37.3291 5.70667 39.5679 6.53547 41.3219 8.04026C43.0759 9.54504 44.2355 11.6318 44.5869 13.916L46.2903 24.9879C46.7202 27.783 45.9106 30.6173 44.0692 32.7637Z" fill="#636363"/>
<path d="M30.4348 36.1414H11.9565C11.3562 36.1414 10.8696 35.6547 10.8696 35.0544C10.8696 34.4542 11.3562 33.9675 11.9565 33.9675H30.4348V36.1414Z" fill="#636363"/>
<path d="M30.4348 35.0544V36.1413H11.9565C11.3562 36.1413 10.8696 35.6547 10.8696 35.0544H30.4348Z" fill="#7C7C7C"/>
<path d="M29.3478 34.5108C29.3478 28.8079 33.971 24.1848 39.6739 24.1848C45.3768 24.1848 50 28.8079 50 34.5108C50 40.2138 45.3768 44.8369 39.6739 44.8369C33.971 44.8369 29.3478 40.2138 29.3478 34.5108Z" fill="#3A3F3F"/>
<path d="M46.7392 34.5109C46.7392 38.4128 43.5759 41.5761 39.6739 41.5761C35.772 41.5761 32.6087 38.4128 32.6087 34.5109C32.6087 30.6089 35.772 27.4456 39.6739 27.4456C43.5759 27.4456 46.7392 30.6089 46.7392 34.5109Z" fill="#D8962B"/>
<path d="M29.3479 6.79343C29.3479 7.69382 28.6179 8.4239 27.7174 8.4239H22.2826C21.3822 8.4239 20.6522 7.69392 20.6522 6.79343C20.6522 5.89294 21.3821 5.16296 22.2826 5.16296H27.7174C28.6179 5.16306 29.3479 5.89304 29.3479 6.79343Z" fill="#005359"/>
<path d="M26.0869 19.9359C26.0869 20.4183 25.6958 20.8095 25.2133 20.8095H0.00137329C0.032135 18.4663 1.94005 16.576 4.29063 16.576H16.0755H17.5057H21.8985C23.9096 16.576 25.6508 17.9728 26.0869 19.9359Z" fill="#FF4800"/>
<path d="M9.78261 37.2282C9.78261 38.4289 8.80936 39.4021 7.60868 39.4021C6.408 39.4021 5.43475 38.4289 5.43475 37.2282C5.43475 36.0275 6.408 35.0543 7.60868 35.0543C8.80936 35.0543 9.78261 36.0276 9.78261 37.2282ZM39.6739 32.3369C38.4732 32.3369 37.5 33.3102 37.5 34.5108C37.5 35.7115 38.4732 36.6848 39.6739 36.6848C40.8746 36.6848 41.8478 35.7115 41.8478 34.5108C41.8478 33.3103 40.8746 32.3369 39.6739 32.3369Z" fill="#005359"/>
<path d="M8.69562 35.0544C8.69562 35.6547 8.209 36.1413 7.6087 36.1413C7.00841 36.1413 6.52179 35.6547 6.52179 35.0544C6.52179 34.4541 7.00841 33.9675 7.6087 33.9675C8.209 33.9675 8.69562 34.454 8.69562 35.0544ZM44.5652 33.424C43.965 33.424 43.4783 33.9106 43.4783 34.5109C43.4783 36.6086 41.7717 38.3153 39.6739 38.3153C39.0736 38.3153 38.587 38.8019 38.587 39.4022C38.587 40.0025 39.0736 40.4891 39.6739 40.4891C42.9703 40.4891 45.6522 37.8073 45.6522 34.5109C45.6522 33.9106 45.1655 33.424 44.5652 33.424Z" fill="white"/>
</svg>
