<svg width="50" height="50" viewBox="0 0 50 50" fill="none" xmlns="http://www.w3.org/2000/svg">
<g clip-path="url(#clip0_15_919)">
<path fill-rule="evenodd" clip-rule="evenodd" d="M1.42532 17.8143C9.65199 17.6382 38.6175 20.0266 43.0595 21.0403C47.5016 22.0541 47.9958 27.5257 47.9958 29.7562C47.9958 31.9876 45.3632 32.6135 45.3632 28.838C45.3632 25.0617 45.0347 23.0163 42.4017 22.7842C39.7691 22.552 4.22194 20.6138 1.75423 20.5465C-0.713477 20.4788 -0.219685 17.7121 1.42532 17.8143Z" fill="#FC5A29"/>
<path fill-rule="evenodd" clip-rule="evenodd" d="M48.588 17.8143C40.3609 17.6382 11.3962 20.0266 6.95337 21.0403C2.51133 22.0541 2.01712 27.5252 2.01712 29.7562C2.01712 31.9876 4.65012 32.6135 4.65012 28.838C4.65012 25.0617 4.97904 23.0163 7.61162 22.7842C10.2438 22.552 45.7905 20.6138 48.2591 20.5465C50.7264 20.4788 50.2334 17.7121 48.588 17.8143Z" fill="#FC5A29"/>
<path fill-rule="evenodd" clip-rule="evenodd" d="M37.6986 33.2921C37.9719 33.2883 38.2535 33.2763 38.5446 33.2543C45.1749 32.7534 46.7152 29.9942 47.3477 26.5057C48.0421 22.6754 48.0517 21.341 49.1082 20.9888C49.8831 20.7305 50.0472 19.8742 49.9886 18.8762C49.9296 17.8786 49.8918 17.7715 48.5799 17.3504C47.5529 17.0206 41.9268 16.5372 37.6982 16.7644V17.7977C41.0186 17.6444 44.228 18.0228 45.1761 18.583C47.3523 19.8671 46.9308 26.0347 45.2351 29.0876C44.0415 31.2355 40.7017 32.3107 37.6986 32.3199V33.2921ZM24.9523 18.7591C23.4863 18.7915 17.4358 17.1739 13.1569 16.8221C12.8799 16.7993 12.5934 16.7806 12.3014 16.7644V17.7977C15.7534 17.9575 19.3283 18.6935 20.6099 20.402C22.7225 23.2194 19.3187 30.0855 16.091 31.6114C15.081 32.0885 13.7288 32.3248 12.3014 32.3203V33.2929C18.1513 33.3772 20.1713 29.4971 20.8441 28.2076C22.0996 25.8009 21.7138 22.4831 24.9996 22.4831C28.2855 22.4831 27.9582 25.7423 29.2137 28.1486C29.886 29.4377 31.8529 33.3714 37.6986 33.2921V32.3199C36.27 32.3244 34.9178 32.0881 33.9086 31.6109C30.6809 30.0851 27.2771 23.219 29.3897 20.4016C30.6714 18.693 34.245 17.9571 37.6986 17.7972V16.764C37.4059 16.7798 37.1201 16.7984 36.8427 16.8217C33.0132 17.1373 28.403 18.6831 24.9523 18.7591ZM12.3014 16.7644C8.072 16.5376 2.44594 17.021 1.41932 17.3508C0.10697 17.7719 0.069593 17.8786 0.0106204 18.8766C-0.0483521 19.8746 0.115691 20.7309 0.89064 20.9892C1.94716 21.3414 1.95671 22.6758 2.65151 26.5061C3.28401 29.9946 4.82394 32.7538 11.4542 33.2547C11.7449 33.2767 12.0269 33.2892 12.301 33.2929V32.3203C9.29714 32.3111 5.9573 31.2359 4.76414 29.088C3.06806 26.0351 2.64694 19.8675 4.8227 18.5834C5.77124 18.0236 8.97985 17.6448 12.3014 17.7981V16.7644Z" fill="#F9AF46"/>
<path fill-rule="evenodd" clip-rule="evenodd" d="M4.82288 18.583C6.75776 17.4413 18.0954 17.0501 20.6101 20.402C22.7227 23.2194 19.3189 30.0855 16.0912 31.6113C12.9586 33.0919 6.52519 32.2571 4.76473 29.088C3.06823 26.0347 2.64754 19.8671 4.82288 18.583ZM45.1767 18.583C43.2427 17.4413 31.9037 17.0501 29.3899 20.402C27.2773 23.2194 30.6807 30.0855 33.9088 31.6113C37.041 33.0919 43.4744 32.2571 45.2353 29.088C46.9314 26.0347 47.3529 19.8671 45.1767 18.583Z" fill="#76DECB"/>
<path fill-rule="evenodd" clip-rule="evenodd" d="M29.9618 27.1594L44.9545 18.4725C45.0384 18.5082 45.1132 18.5456 45.1767 18.583C45.9861 19.0606 46.4359 20.2151 46.595 21.633L31.9723 30.1047C31.2139 29.2861 30.515 28.2566 29.9618 27.1594Z" fill="#D9FFF8"/>
<path fill-rule="evenodd" clip-rule="evenodd" d="M28.9202 24.2905L40.1607 17.7781C41.3144 17.8126 42.3797 17.9073 43.2477 18.0448L29.4568 26.0347C29.228 25.452 29.0444 24.8644 28.9202 24.2905Z" fill="#D9FFF8"/>
<path fill-rule="evenodd" clip-rule="evenodd" d="M33.1991 31.1932L46.651 23.3992C46.6232 24.1235 46.5385 24.8698 46.4035 25.5974L35.2448 32.0628C34.7573 31.9494 34.3063 31.7991 33.9088 31.611C33.6725 31.4992 33.435 31.3584 33.1991 31.1932Z" fill="#D9FFF8"/>
<path fill-rule="evenodd" clip-rule="evenodd" d="M3.8299 26.651L17.6623 18.6365C18.9676 19.0485 20.0262 19.6245 20.6097 20.402C20.7201 20.5486 20.814 20.7072 20.895 20.8742L5.34532 29.8833C5.11815 29.6366 4.92213 29.3716 4.76473 29.0876C4.3839 28.4023 4.06745 27.5597 3.8299 26.651Z" fill="#D9FFF8"/>
<path fill-rule="evenodd" clip-rule="evenodd" d="M3.35147 23.4561L13.0421 17.8412C14.0359 17.911 15.0247 18.031 15.9525 18.2104L3.55912 25.3906C3.44948 24.7481 3.37888 24.094 3.35147 23.4561Z" fill="#D9FFF8"/>
<path fill-rule="evenodd" clip-rule="evenodd" d="M6.65559 30.9228L21.2588 22.4619C21.2862 23.1508 21.1869 23.9029 20.9884 24.6737L8.69388 31.797C7.95756 31.5756 7.26401 31.2845 6.65559 30.9228Z" fill="#D9FFF8"/>
</g>
<defs>
<clipPath id="clip0_15_919">
<rect width="50" height="50" fill="white"/>
</clipPath>
</defs>
</svg>
