<svg width="50" height="50" viewBox="0 0 50 50" fill="none" xmlns="http://www.w3.org/2000/svg">
<g clip-path="url(#clip0_15_1066)">
<path d="M36.9897 47.7454C36.9897 48.1748 36.639 48.5238 36.2112 48.5238H6.15402C5.7246 48.5238 5.3772 48.1748 5.3772 47.7454V21.3175C5.3772 20.8881 5.7246 20.5391 6.15402 20.5391H36.2104C36.6381 20.5391 36.9888 20.8881 36.9888 21.3175V47.7454H36.9897Z" fill="#FFB000"/>
<path d="M5.3772 21.3175C5.3772 20.8881 5.7246 20.5391 6.15402 20.5391H36.2104C36.6381 20.5391 36.9888 20.8881 36.9888 21.3175V47.7454C36.9888 48.1748 36.6381 48.5238 36.2104 48.5238" fill="#FF9100"/>
<path d="M38.6237 47.9873C38.6237 48.2835 38.3842 48.523 38.0895 48.523H4.27722C3.98094 48.523 3.74309 48.2835 3.74309 47.9873C3.74309 47.6926 3.98094 47.4531 4.27722 47.4531H38.0894C38.3842 47.4531 38.6237 47.6926 38.6237 47.9873Z" fill="#08A599"/>
<path d="M41.9201 20.3378L21.5137 10.717C21.3027 10.6188 21.0616 10.6188 20.8513 10.717L0.444939 20.3378C0.117024 20.4912 -0.0607427 20.8549 0.0188143 21.2096C0.0967224 21.5651 0.413301 21.8168 0.776976 21.8168H41.5889C41.9517 21.8168 42.2675 21.5643 42.347 21.2096C42.4274 20.8549 42.2496 20.4912 41.9201 20.3378Z" fill="#EA186D"/>
<path d="M21.5138 13.5679C21.3027 13.4696 21.0617 13.4696 20.8513 13.5679L3.35108 21.8167H39.0157L21.5138 13.5679Z" fill="#D10D54"/>
<path d="M20.8513 14.6361L5.6166 21.8167H36.7469L21.5138 14.6361C21.3027 14.5379 21.0617 14.5379 20.8513 14.6361Z" fill="#BC0F45"/>
<path d="M24.9604 31.875H17.382C16.9525 31.875 16.6035 32.2224 16.6035 32.6518V48.5237H25.7372V32.6518C25.7373 32.2216 25.3898 31.875 24.9604 31.875Z" fill="#EA186D"/>
<path d="M24.9604 31.875H17.382C17.3706 31.875 17.3617 31.8815 17.3503 31.8815L25.7372 39.2821V32.6518C25.7373 32.2216 25.3898 31.875 24.9604 31.875Z" fill="#D10D54"/>
<path opacity="0.6" d="M33.1663 25.3154C39.4028 25.3154 44.4584 20.2598 44.4584 14.0233C44.4584 7.7868 39.4028 2.73114 33.1663 2.73114C26.9298 2.73114 21.8741 7.7868 21.8741 14.0233C21.8741 20.2598 26.9298 25.3154 33.1663 25.3154Z" fill="#5CF7FF"/>
<path d="M33.1663 26.5703C26.2478 26.5703 20.6192 20.9416 20.6192 14.0232C20.6192 7.10469 26.247 1.47614 33.1663 1.47614C40.0839 1.47614 45.7126 7.10479 45.7126 14.0233C45.7126 20.9417 40.0839 26.5703 33.1663 26.5703ZM33.1663 3.98527C27.631 3.98527 23.1283 8.48797 23.1283 14.0224C23.1283 19.5569 27.6302 24.0604 33.1663 24.0604C38.7008 24.0604 43.2026 19.5577 43.2026 14.0233C43.2026 8.48879 38.7008 3.98527 33.1663 3.98527Z" fill="#17DD9F"/>
<path d="M34.9075 3.21814C27.9898 3.21814 22.3612 8.84679 22.3612 15.7653C22.3612 18.7826 23.4319 21.5522 25.2129 23.7195C27.3793 25.498 30.1491 26.5704 33.1663 26.5704C40.0839 26.5704 45.7126 20.9417 45.7126 14.0233C45.7126 11.006 44.6427 8.23631 42.8617 6.069C40.6944 4.28968 37.9248 3.21814 34.9075 3.21814ZM34.9075 25.8024C31.6971 25.8024 28.8414 24.2821 27.0028 21.9279C24.6504 20.0902 23.1283 17.2337 23.1283 14.0233C23.1283 8.48879 27.631 3.98609 33.1663 3.98609C36.3767 3.98609 39.2332 5.50643 41.071 7.86058C43.4242 9.69997 44.9455 12.5548 44.9455 15.7653C44.9455 21.2996 40.4428 25.8024 34.9075 25.8024Z" fill="#08C19D"/>
<path d="M48.7436 30.8571C48.423 30.8571 48.1015 30.7337 47.8571 30.4894L40.5385 23.1691C40.0473 22.6788 40.0473 21.8865 40.5385 21.3947C41.0288 20.9043 41.8218 20.9043 42.313 21.3947L49.6316 28.7149C50.1227 29.2053 50.1227 29.9991 49.6316 30.4894C49.3865 30.7329 49.0651 30.8571 48.7436 30.8571Z" fill="#17DD9F"/>
</g>
<defs>
<clipPath id="clip0_15_1066">
<rect width="50" height="50" fill="white"/>
</clipPath>
</defs>
</svg>
