<svg width="50" height="50" viewBox="0 0 50 50" fill="none" xmlns="http://www.w3.org/2000/svg">
<path d="M44.7785 2.63711C44.7785 1.18066 43.5978 0 42.1413 0H7.85869C6.40224 0 5.22148 1.18066 5.22148 2.63711V47.3629C5.22148 48.8193 6.40215 50 7.85859 50H42.1413C43.5978 50 44.7784 48.8193 44.7784 47.3629V2.63711H44.7785Z" fill="#C34A48"/>
<path d="M25.0527 0H7.85869C6.40224 0 5.22148 1.18066 5.22148 2.63711V47.3629C5.22148 48.8193 6.40215 50 7.85859 50H25.0527V0Z" fill="#FB5858"/>
<path d="M39.3987 6.22362C39.3987 5.34979 38.6903 4.6413 37.8164 4.6413H12.2891C11.4152 4.6413 10.7067 5.34969 10.7067 6.22362V15.2954C10.7067 16.1692 11.4151 16.8777 12.2891 16.8777H37.8164C38.6902 16.8777 39.3987 16.1693 39.3987 15.2954V6.22362Z" fill="#FF835D"/>
<path d="M25.0527 4.6413H12.2891C11.4152 4.6413 10.7067 5.34969 10.7067 6.22362V15.2954C10.7067 16.1692 11.4151 16.8777 12.2891 16.8777H25.0527V4.6413Z" fill="#FBB071"/>
<path d="M39.3987 20.4642C39.3987 19.5903 38.6903 18.8818 37.8164 18.8818H12.2891C11.4152 18.8818 10.7067 19.5902 10.7067 20.4642V29.5359C10.7067 30.4098 11.4151 31.1183 12.2891 31.1183H37.8164C38.6902 31.1183 39.3987 30.4099 39.3987 29.5359V20.4642Z" fill="#FF835D"/>
<path d="M25.0527 18.8818H12.2891C11.4152 18.8818 10.7067 19.5902 10.7067 20.4642V29.5359C10.7067 30.4098 11.4151 31.1183 12.2891 31.1183H25.0527V18.8818Z" fill="#FBB071"/>
<path d="M39.3987 34.7047C39.3987 33.8309 38.6903 33.1224 37.8164 33.1224H12.2891C11.4152 33.1224 10.7067 33.8308 10.7067 34.7047V43.7765C10.7067 44.6503 11.4151 45.3588 12.2891 45.3588H37.8164C38.6902 45.3588 39.3987 44.6504 39.3987 43.7765V34.7047Z" fill="#FF835D"/>
<path d="M25.0527 33.1224H12.2891C11.4152 33.1224 10.7067 33.8308 10.7067 34.7047V43.7765C10.7067 44.6503 11.4151 45.3588 12.2891 45.3588H25.0527V33.1224Z" fill="#FBB071"/>
<path d="M25.0527 12.6107C26.0641 12.6107 26.8839 11.7908 26.8839 10.7795C26.8839 9.7682 26.0641 8.94836 25.0527 8.94836C24.0414 8.94836 23.2216 9.7682 23.2216 10.7795C23.2216 11.7908 24.0414 12.6107 25.0527 12.6107Z" fill="#CCCCCC"/>
<path d="M25.0527 12.6107C24.0414 12.6107 23.2216 11.7908 23.2216 10.7795C23.2216 9.76819 24.0414 8.94836 25.0527 8.94836V12.6107Z" fill="#E1E1E1"/>
<path d="M25.0527 26.8311C26.0641 26.8311 26.8839 26.0113 26.8839 25C26.8839 23.9887 26.0641 23.1688 25.0527 23.1688C24.0414 23.1688 23.2216 23.9887 23.2216 25C23.2216 26.0113 24.0414 26.8311 25.0527 26.8311Z" fill="#CCCCCC"/>
<path d="M25.0527 26.8311C24.0414 26.8311 23.2216 26.0113 23.2216 25C23.2216 23.9886 24.0414 23.1688 25.0527 23.1688V26.8311Z" fill="#E1E1E1"/>
<path d="M25.0527 41.0516C26.0641 41.0516 26.8839 40.2318 26.8839 39.2205C26.8839 38.2092 26.0641 37.3893 25.0527 37.3893C24.0414 37.3893 23.2216 38.2092 23.2216 39.2205C23.2216 40.2318 24.0414 41.0516 25.0527 41.0516Z" fill="#CCCCCC"/>
<path d="M25.0527 41.0515C24.0414 41.0515 23.2216 40.2316 23.2216 39.2203C23.2216 38.209 24.0414 37.3892 25.0527 37.3892V41.0515Z" fill="#E1E1E1"/>
</svg>
