<svg width="20" height="20" viewBox="0 0 20 20" fill="none" xmlns="http://www.w3.org/2000/svg">
<g clip-path="url(#clip0_3_11)">
<path d="M8.81927 0.0238647C3.95637 0.0238647 0 3.96942 0 8.81908C0 13.6687 3.95641 17.6143 8.81927 17.6143C13.6821 17.6143 17.6386 13.6687 17.6386 8.81908C17.6386 3.96942 13.6822 0.0238647 8.81927 0.0238647ZM8.81927 16.1685C4.75349 16.1685 1.44578 12.8714 1.44578 8.81904C1.44578 4.76649 4.75349 1.46961 8.81927 1.46961C12.8851 1.46961 16.1928 4.76649 16.1928 8.81904C16.1928 12.8714 12.8851 16.1685 8.81927 16.1685Z" fill="#4B484B"/>
<path d="M19.787 18.7405L15.04 14.0176C14.7569 13.7362 14.2993 13.7374 14.0176 14.0203C13.7362 14.3034 13.7374 14.761 14.0203 15.0427L18.7673 19.7656C18.9085 19.9058 19.0926 19.9759 19.2772 19.9759C19.4629 19.9759 19.6485 19.9049 19.7897 19.7629C20.0711 19.4798 20.0699 19.0222 19.787 18.7405Z" fill="#4B484B"/>
</g>
<defs>
<clipPath id="clip0_3_11">
<rect width="20" height="20" fill="white"/>
</clipPath>
</defs>
</svg>
