<svg width="50" height="50" viewBox="0 0 50 50" fill="none" xmlns="http://www.w3.org/2000/svg">
<g clip-path="url(#clip0_15_828)">
<path d="M41.1374 29.9208C34.9542 29.9208 34.475 30.1501 33.675 29.1544C33.2857 28.6698 33.1373 28.0348 33.2713 27.4279C33.4457 26.638 33.5342 25.8211 33.5342 25.0001C33.5342 24.1791 33.4459 23.3623 33.2713 22.5723C32.9893 21.2937 33.9632 20.0793 35.2738 20.0793H41.1375C42.2701 20.0793 43.1883 20.9974 43.1883 22.1301V27.87C43.1882 29.0025 42.27 29.9208 41.1374 29.9208Z" fill="#D55400"/>
<path d="M33.1576 9.14707H11.2972C10.1645 9.14707 9.24638 8.22891 9.24638 7.09629V2.05078C9.24638 0.918164 10.1645 0 11.2972 0H33.1576C34.2902 0 35.2084 0.918164 35.2084 2.05078V7.09629C35.2084 8.22891 34.2903 9.14707 33.1576 9.14707Z" fill="#E87E04"/>
<path d="M33.1576 0H22.2274V9.14707H33.1576C34.2902 9.14707 35.2084 8.22891 35.2084 7.09629V2.05078C35.2084 0.918164 34.2903 0 33.1576 0Z" fill="#D55400"/>
<path d="M33.1576 50H11.2972C10.1645 50 9.24638 49.0818 9.24638 47.9492V42.9037C9.24638 41.7711 10.1645 40.8529 11.2972 40.8529H33.1576C34.2902 40.8529 35.2084 41.7711 35.2084 42.9037V47.9492C35.2084 49.0818 34.2903 50 33.1576 50Z" fill="#E87E04"/>
<path d="M33.1576 40.8529H22.2274V50H33.1576C34.2902 50 35.2084 49.0818 35.2084 47.9492V42.9037C35.2084 41.7711 34.2903 40.8529 33.1576 40.8529Z" fill="#D55400"/>
<path d="M33.2648 22.5406C30.6773 10.8508 13.7962 10.7685 11.1901 22.5406C10.6434 25.0097 6.95342 24.4647 7.14268 21.9438L8.26963 6.9427C8.35001 5.87258 9.2417 5.04553 10.3147 5.04553H34.1401C35.2133 5.04553 36.1048 5.87268 36.1852 6.9427L37.312 21.9438C37.5015 24.4663 33.811 25.008 33.2648 22.5406Z" fill="#F59D00"/>
<path d="M37.3121 21.9437L36.1853 6.9427C36.1049 5.87258 35.2133 5.04553 34.1402 5.04553H22.2275V13.6935C27.7656 13.6935 32.1746 17.6153 33.2648 22.5406C33.8112 25.0097 37.5014 24.4644 37.3121 21.9437Z" fill="#E87E04"/>
<path d="M34.1402 44.9545H10.3148C9.2418 44.9545 8.3501 44.1274 8.26973 43.0573L7.14278 28.0564C6.95342 25.5351 10.644 24.9911 11.1902 27.4595C12.2801 32.3826 16.6862 36.3067 22.2275 36.3067C27.7656 36.3067 32.1746 32.3849 33.2649 27.4595C33.8115 24.9911 37.5015 25.5353 37.3124 28.0564L36.1856 43.0573C36.1049 44.1274 35.2134 44.9545 34.1402 44.9545Z" fill="#F59D00"/>
<path d="M33.2648 27.4593C32.1752 32.3824 27.7687 36.3065 22.2275 36.3065V44.9545H34.1402C35.2134 44.9545 36.1049 44.1273 36.1853 43.0573L37.3121 28.0562C37.5014 25.5351 33.8112 24.9912 33.2648 27.4593Z" fill="#E87E04"/>
<path d="M22.2274 40.4081C12.4017 40.4081 5.03925 31.2734 7.18622 21.6507C10.7389 5.60194 33.7463 5.74002 37.2694 21.654C37.2728 21.6697 37.2763 21.6854 37.2793 21.7012C37.7452 23.8206 37.7645 26.1011 37.2763 28.3121C35.7552 35.2746 29.5429 40.4081 22.2274 40.4081Z" fill="#F2C500"/>
<path d="M37.2793 21.7013C37.2763 21.6856 37.2729 21.6698 37.2694 21.6541C35.734 14.7185 29.5423 9.59192 22.2275 9.59192V40.4082C29.5384 40.4082 35.7542 35.2789 37.2765 28.3122C37.7434 26.1978 37.7664 23.9171 37.2793 21.7013Z" fill="#F59D00"/>
<path d="M27.6965 22.9491H24.2782V17.2772C24.2782 16.1446 23.3601 15.2264 22.2274 15.2264C21.0948 15.2264 20.1767 16.1446 20.1767 17.2772V24.9999C20.1767 26.1325 21.0948 27.0507 22.2274 27.0507H27.6965C28.8291 27.0507 29.7473 26.1325 29.7473 24.9999C29.7473 23.8674 28.8291 22.9491 27.6965 22.9491Z" fill="#58595B"/>
<path d="M27.6965 22.9491H24.2782V17.2772C24.2782 16.1446 23.3601 15.2264 22.2274 15.2264V27.0508H27.6964C28.829 27.0508 29.7472 26.1326 29.7472 25C29.7472 23.8674 28.8291 22.9491 27.6965 22.9491Z" fill="#414042"/>
</g>
<defs>
<clipPath id="clip0_15_828">
<rect width="50" height="50" fill="white"/>
</clipPath>
</defs>
</svg>
