<svg width="30" height="30" viewBox="0 0 30 30" fill="none" xmlns="http://www.w3.org/2000/svg">
<path d="M24.9997 3.73407H19.1253C18.9179 1.64068 17.1471 0 14.9999 0C12.8528 0 11.082 1.64068 10.8746 3.73407H5.0003C3.23772 3.73407 1.80374 5.16805 1.80374 6.93062C1.80374 8.64 3.15247 10.0402 4.84163 10.1232V26.1396C4.84163 28.2682 6.57338 30 8.70204 30H21.298C23.4266 30 25.1584 28.2682 25.1584 26.1396V10.1232C26.8476 10.0402 28.1963 8.64007 28.1963 6.93069C28.1963 5.16805 26.7623 3.73407 24.9997 3.73407ZM14.9999 1.96292C16.0628 1.96292 16.9502 2.7267 17.1435 3.73407H12.8564C13.0497 2.7267 13.9371 1.96292 14.9999 1.96292ZM23.1954 26.1397C23.1954 27.186 22.3442 28.0371 21.2979 28.0371H8.70197C7.65567 28.0371 6.80448 27.186 6.80448 26.1397V10.1272C7.60562 10.1272 22.5688 10.1272 23.1954 10.1272V26.1397V26.1397ZM24.9997 8.16432C24.7951 8.16432 5.17428 8.16432 5.0003 8.16432C4.32008 8.16432 3.76666 7.61091 3.76666 6.93069C3.76666 6.25047 4.32008 5.69706 5.0003 5.69706H24.9997C25.6799 5.69706 26.2333 6.25047 26.2333 6.93069C26.2333 7.61091 25.6799 8.16432 24.9997 8.16432Z" fill="#DC2626"/>
<path d="M15 25.6699C15.542 25.6699 15.9814 25.2304 15.9814 24.6884V13.3228C15.9814 12.7807 15.542 12.3413 15 12.3413C14.4579 12.3413 14.0185 12.7807 14.0185 13.3228V24.6884C14.0185 25.2304 14.4579 25.6699 15 25.6699Z" fill="#DC2626"/>
<path d="M20.0657 25.6699C20.6077 25.6699 21.0472 25.2304 21.0472 24.6884V13.3228C21.0472 12.7807 20.6077 12.3413 20.0657 12.3413C19.5237 12.3413 19.0843 12.7807 19.0843 13.3228V24.6884C19.0843 25.2304 19.5237 25.6699 20.0657 25.6699Z" fill="#DC2626"/>
<path d="M9.93422 25.6699C10.4762 25.6699 10.9157 25.2304 10.9157 24.6884V13.3228C10.9157 12.7807 10.4762 12.3413 9.93422 12.3413C9.39219 12.3413 8.95276 12.7807 8.95276 13.3228V24.6884C8.95276 25.2304 9.39219 25.6699 9.93422 25.6699Z" fill="#DC2626"/>
</svg>
