<svg width="50" height="50" viewBox="0 0 50 50" fill="none" xmlns="http://www.w3.org/2000/svg">
<g clip-path="url(#clip0_15_1045)">
<path d="M35.9528 47.5749C35.9528 48.9141 34.867 49.9999 33.5278 49.9999H2.46758C1.12832 49.9999 0.0425797 48.9141 0.0425797 47.5749V13.3232C0.0425797 11.9839 1.12832 10.8982 2.46758 10.8982H33.528C34.8672 10.8982 35.953 11.9839 35.953 13.3232V47.5749H35.9528Z" fill="#F53000"/>
<path d="M33.5279 47.3842H2.46758C1.12832 47.3842 0.0425797 46.2985 0.0425797 44.9592V47.5749C0.0425797 48.9141 1.12832 49.9999 2.46758 49.9999H33.528C34.8672 49.9999 35.953 48.9142 35.953 47.5749V44.9592C35.9528 46.2984 34.8671 47.3842 33.5279 47.3842Z" fill="#BF2717"/>
<path d="M33.5279 10.8983H17.9976V49.9999H33.5279C34.8671 49.9999 35.9529 48.9142 35.9529 47.5749V13.3232C35.9528 11.9839 34.8671 10.8983 33.5279 10.8983Z" fill="#BF2717"/>
<path d="M25.1905 18.7632C24.2876 18.7632 23.5557 18.0313 23.5557 17.1285V8.82772C23.5557 5.76298 21.0625 3.26972 17.9977 3.26972C14.933 3.26972 12.4397 5.76298 12.4397 8.82772V17.1285C12.4397 18.0313 11.7078 18.7632 10.805 18.7632C9.90213 18.7632 9.1702 18.0313 9.1702 17.1285V8.82772C9.17 3.96005 13.1301 0 17.9976 0C22.8652 0 26.8252 3.96005 26.8252 8.82762V17.1284C26.8252 18.0312 26.0933 18.7632 25.1905 18.7632Z" fill="#3E3E42"/>
<path d="M17.9976 0V3.26962C21.0624 3.26962 23.5556 5.76288 23.5556 8.82762V17.1284C23.5556 18.0312 24.2875 18.7631 25.1904 18.7631C26.0932 18.7631 26.8251 18.0312 26.8251 17.1284V8.82762C26.8252 3.96005 22.8652 0 17.9976 0Z" fill="#2D2E30"/>
<path d="M45.8674 49.9999H28.0003C27.0039 49.9999 26.196 49.1921 26.196 48.1956V30.6299H47.6716V48.1955C47.6717 49.1921 46.8639 49.9999 45.8674 49.9999Z" fill="#3E3E42"/>
<path d="M36.9264 30.6299V49.9998H45.8674C46.8639 49.9998 47.6717 49.192 47.6717 48.1955V30.6299H36.9264Z" fill="#2D2E30"/>
<path d="M47.6569 30.6297H26.1962V33.0238H47.6569V30.6297Z" fill="#2D2E30"/>
<path d="M37.469 25.985L37.7148 24.5153C37.7227 24.4674 37.9141 23.3305 38.2391 22.0464C38.8735 19.5395 39.4349 18.7617 39.802 18.3946C40.5042 17.6923 41.4376 17.3057 42.4308 17.3057C43.4237 17.3057 44.3573 17.6924 45.0596 18.3946C46.5091 19.8441 46.5091 22.2026 45.0596 23.6521C44.6926 24.0192 43.9147 24.5804 41.4078 25.215C40.1237 25.54 38.9866 25.7314 38.9388 25.7393L37.469 25.985ZM42.4307 19.4321C42.0056 19.4321 41.606 19.5976 41.3055 19.8981C40.9466 20.257 40.4703 21.7586 40.1132 23.3407C41.6953 22.9835 43.197 22.5073 43.5559 22.1485C43.8565 21.8479 44.0219 21.4484 44.0219 21.0233C44.0219 20.5982 43.8564 20.1987 43.5559 19.8981C43.2553 19.5975 42.8557 19.4321 42.4307 19.4321Z" fill="#F53000"/>
<path d="M36.3053 25.985L34.8356 25.7392C34.7877 25.7313 33.6508 25.5399 32.3667 25.2149C29.8598 24.5803 29.082 24.0191 28.7149 23.652C27.2654 22.2025 27.2654 19.844 28.7149 18.3945C29.4171 17.6922 30.3506 17.3056 31.3437 17.3056C32.3367 17.3056 33.2702 17.6923 33.9725 18.3945C34.3396 18.7615 34.9008 19.5394 35.5353 22.0463C35.8603 23.3304 36.0517 24.4675 36.0596 24.5152L36.3053 25.985ZM31.3436 19.4321C30.9185 19.4321 30.519 19.5976 30.2184 19.8981C29.9178 20.1987 29.7524 20.5982 29.7524 21.0233C29.7524 21.4484 29.9179 21.8479 30.2184 22.1485C30.5773 22.5073 32.0789 22.9836 33.661 23.3406C33.3038 21.7586 32.8276 20.257 32.4688 19.8981C32.1683 19.5975 31.7686 19.4321 31.3436 19.4321Z" fill="#F7603E"/>
<path d="M48.1531 25.1017H25.7146C24.7181 25.1017 23.9103 25.9095 23.9103 26.906V28.8259C23.9103 29.8224 24.7181 30.6302 25.7146 30.6302H48.1532C49.1497 30.6302 49.9575 29.8224 49.9575 28.8259V26.906C49.9574 25.9094 49.1496 25.1017 48.1531 25.1017Z" fill="#797882"/>
<path d="M36.9338 22.1956C35.3288 22.1956 34.0278 23.4966 34.0278 25.1016H39.84C39.84 23.4966 38.5389 22.1956 36.9338 22.1956Z" fill="#BF2717"/>
<path d="M39.751 25.1019H34.1163V50H39.751V25.1019Z" fill="#F53000"/>
<path d="M47.6568 36.7886H26.1973V42.4232H47.6568V36.7886Z" fill="#F7603E"/>
<path d="M39.751 30.6297H34.1163V33.0238H39.751V30.6297Z" fill="#BF2717"/>
</g>
<defs>
<clipPath id="clip0_15_1045">
<rect width="50" height="50" fill="white"/>
</clipPath>
</defs>
</svg>
