<svg width="50" height="50" viewBox="0 0 50 50" fill="none" xmlns="http://www.w3.org/2000/svg">
<g clip-path="url(#clip0_15_937)">
<path d="M25 0C11.2148 0 0 11.2148 0 25C0 38.7852 11.2148 50 25 50C38.785 50 50 38.7852 50 25C50 11.2148 38.785 0 25 0Z" fill="#93C7EF"/>
<path d="M25 50C38.785 50 50 38.7852 50 25C50 11.2148 38.785 0 25 0" fill="#78B9EB"/>
<path d="M25 6.09753C14.5771 6.09753 6.09756 14.577 6.09756 25C6.09756 35.4229 14.5771 43.9024 25 43.9024C35.4229 43.9024 43.9024 35.4229 43.9024 25C43.9024 14.577 35.4229 6.09753 25 6.09753Z" fill="#FFAD41"/>
<path d="M25 43.9024C35.4229 43.9024 43.9024 35.4229 43.9024 25C43.9024 14.577 35.4229 6.09753 25 6.09753" fill="#FF9811"/>
<path d="M25.0735 21.3432C25.0489 21.3428 25.0246 21.3414 25 21.3414C22.9795 21.3414 21.3415 22.9795 21.3415 24.9999C21.3415 27.0203 22.9795 28.6585 25 28.6585C27.0205 28.6585 28.6585 27.0205 28.6585 25C28.6585 24.3599 28.4937 23.7584 28.2047 23.2349L32.9068 15.4586L29.776 13.5656L25.0735 21.3432Z" fill="white"/>
<path d="M25 6.09753C14.5772 6.09753 6.09756 14.5771 6.09756 25C6.09756 28.3228 6.97247 31.5915 8.62755 34.4526L9.54239 36.0344L15.3528 32.682L13.5245 29.5131L10.976 30.9835C10.1743 29.1025 9.75606 27.0647 9.75606 25C9.75606 22.8775 10.1927 20.8553 10.9797 19.0177L13.5239 20.4866L15.3532 17.3183L12.8137 15.8521C15.2513 12.6131 18.9483 10.3736 23.1706 9.86638V12.805H26.8291V9.86619C31.0515 10.3734 34.7483 12.6129 37.186 15.8519L34.6465 17.3181L36.4758 20.4864L39.02 19.0175C39.8071 20.8552 40.2437 22.8774 40.2437 24.9999C40.2437 27.0646 39.8255 29.1024 39.0239 30.9833L36.4753 29.5129L34.647 32.6818L40.4574 36.0341L41.3725 34.4525C43.0273 31.5914 43.9023 28.3227 43.9023 25C43.9024 14.5771 35.423 6.09753 25 6.09753Z" fill="white"/>
<path d="M29.878 36.5853H20.122V40.2438H29.878V36.5853Z" fill="white"/>
</g>
<defs>
<clipPath id="clip0_15_937">
<rect width="50" height="50" fill="white"/>
</clipPath>
</defs>
</svg>
