<svg width="14" height="14" viewBox="0 0 14 14" fill="none" xmlns="http://www.w3.org/2000/svg">
<g clip-path="url(#clip0_108_130)">
<path d="M13.9618 6.62802L12.8764 4.28325C12.8087 4.1372 12.6624 4.04368 12.5015 4.04368H9.08806V1.99971C9.08806 1.7716 8.90319 1.58667 8.67503 1.58667H0.413036C0.184875 1.58667 0 1.7716 0 1.99971V8.95089C0 9.17899 0.184875 9.36392 0.413036 9.36392H1.22209C1.15292 9.51537 1.10066 9.67601 1.06795 9.8437H0.413036C0.184875 9.8437 0 10.0286 0 10.2567C0 10.4848 0.184875 10.6698 0.413036 10.6698H1.068C1.2613 11.6619 2.13672 12.4133 3.18473 12.4133C4.23257 12.4133 5.10794 11.6619 5.30124 10.6698H8.74849C8.94179 11.6619 9.81715 12.4133 10.8651 12.4133C11.9129 12.4133 12.7882 11.6619 12.9815 10.6698H13.5871C13.8152 10.6698 14.0001 10.4848 14.0001 10.2567V6.80155C14 6.74158 13.987 6.68238 13.9618 6.62802ZM8.74838 9.84365H5.30118C5.26852 9.67596 5.21621 9.51531 5.14704 9.36387H8.67508C8.78456 9.36387 8.88386 9.32097 8.95776 9.25141C8.86062 9.43485 8.7893 9.63383 8.74838 9.84365ZM0.826072 2.41274H8.26199V8.53785H4.48541C4.12353 8.26332 3.67288 8.10003 3.18467 8.10003C2.69647 8.10003 2.24571 8.26332 1.88383 8.53785H0.826072V2.41274ZM3.18467 11.5872C2.4509 11.5872 1.85393 10.9903 1.85393 10.2567C1.85393 9.52297 2.4509 8.92605 3.18467 8.92605C3.91834 8.92605 4.5152 9.52297 4.5152 10.2567C4.5152 10.9903 3.91834 11.5872 3.18467 11.5872ZM10.865 11.5872C10.1313 11.5872 9.53436 10.9903 9.53436 10.2567C9.53436 9.52297 10.1313 8.92605 10.865 8.92605C11.5986 8.92605 12.1954 9.52297 12.1954 10.2567C12.1954 10.9903 11.5986 11.5872 10.865 11.5872ZM13.1739 9.84365H12.9814C12.7881 8.85137 11.9129 8.09998 10.865 8.09998C10.1196 8.09998 9.46145 8.48019 9.07391 9.05679C9.08283 9.02292 9.08812 8.98756 9.08812 8.95089V4.86976H12.2376L13.1739 6.89248V9.84365Z" fill="#FB923C"/>
<path d="M11.6237 5.24829H9.88693C9.65877 5.24829 9.47389 5.43322 9.47389 5.66133V6.80957C9.47389 7.03767 9.65877 7.2226 9.88693 7.2226H12.1684C12.169 7.2226 12.1693 7.2226 12.1695 7.2226C12.3977 7.2226 12.5826 7.03767 12.5826 6.80957C12.5826 6.73561 12.5631 6.66622 12.5291 6.60619L11.9969 5.48433C11.9285 5.34015 11.7833 5.24829 11.6237 5.24829ZM10.3 6.39648V6.07431H11.3625L11.5153 6.39648H10.3Z" fill="#FB923C"/>
</g>
<defs>
<clipPath id="clip0_108_130">
<rect width="14" height="14" fill="white"/>
</clipPath>
</defs>
</svg>
