<svg width="50" height="50" viewBox="0 0 50 50" fill="none" xmlns="http://www.w3.org/2000/svg">
<path d="M4.27014 22.9167H1.38889V27.0834H4.27014C4.20208 26.3981 4.16666 25.7031 4.16666 25C4.16666 24.297 4.20194 23.602 4.27014 22.9167Z" fill="#ACABB1"/>
<path d="M48.6111 22.9167H45.7299C45.7979 23.602 45.8333 24.297 45.8333 25C45.8333 25.7031 45.7981 26.3981 45.7299 27.0834H48.6111V22.9167Z" fill="#ACABB1"/>
<path d="M25 0H12.5V8.33236C15.9819 5.71694 20.3099 4.16667 25 4.16667V0Z" fill="#FF5023"/>
<path d="M12.5 41.6677V50H25V45.8334C20.3099 45.8334 15.9819 44.2831 12.5 41.6677Z" fill="#FF5023"/>
<path d="M25 50H37.5V41.6677C34.0181 44.2831 29.6901 45.8334 25 45.8334V50Z" fill="#BF3C1A"/>
<path d="M37.5 8.33236V0H25V4.16667C29.6901 4.16667 34.0181 5.71694 37.5 8.33236Z" fill="#BF3C1A"/>
<path d="M25 41.6667C15.7953 41.6667 8.33332 34.2047 8.33332 25C8.33332 15.7953 15.7953 8.33335 25 8.33335V4.16669C20.3099 4.16669 15.9819 5.71696 12.5 8.33238C7.96207 11.7411 4.86152 16.9596 4.27013 22.9167C4.20207 23.602 4.16666 24.297 4.16666 25C4.16666 25.7031 4.20193 26.3981 4.27013 27.0834C4.86152 33.0404 7.96207 38.2589 12.5 41.6677C15.9819 44.2831 20.3099 45.8334 25 45.8334V41.6667Z" fill="#EBEBEC"/>
<path d="M45.7299 22.9167C45.1385 16.9596 42.0379 11.7411 37.5 8.33238C34.0181 5.71696 29.6901 4.16669 25 4.16669V8.33335C34.2047 8.33335 41.6667 15.7953 41.6667 25C41.6667 34.2047 34.2047 41.6667 25 41.6667V45.8334C29.6901 45.8334 34.0181 44.2831 37.5 41.6677C42.0379 38.2589 45.1385 33.0404 45.7299 27.0834C45.7979 26.3981 45.8333 25.7031 45.8333 25C45.8333 24.297 45.7981 23.602 45.7299 22.9167Z" fill="#CDCDD0"/>
<path d="M8.33334 25C8.33334 34.2047 15.7953 41.6666 25 41.6666V27.0833H22.9167V16.6666H25V8.33331C15.7953 8.33331 8.33334 15.7953 8.33334 25Z" fill="#78B9EB"/>
<path d="M27.0833 16.6666V22.9166H37.5V27.0833H25V41.6666C34.2047 41.6666 41.6667 34.2047 41.6667 25C41.6667 15.7953 34.2047 8.33331 25 8.33331V16.6666H27.0833Z" fill="#5A8BB0"/>
<path d="M37.5 22.9167H27.0833V16.6667H25H22.9167V27.0834H25H37.5V22.9167Z" fill="white"/>
</svg>
