<svg width="50" height="50" viewBox="0 0 50 50" fill="none" xmlns="http://www.w3.org/2000/svg">
<path d="M44.8846 28.6781L38.0088 27.6341C36.2209 27.332 34.0198 25.7517 33.1067 24.1847L23.8704 8.35168L21.011 9.99231L21.0221 10.0121V31.6308L45.9342 39.4506H49.2309V33.733C49.2308 31.3155 47.2747 29.0406 44.8846 28.6781Z" fill="#083B25"/>
<path d="M13.1868 32.8571V41.6483H0V35.055L13.1868 32.8571Z" fill="#FF6638"/>
<path d="M44.3901 31.9374L37.4594 30.8847C34.7198 30.4221 31.6912 28.3033 30.2583 25.8462L21.0221 10.0121L21.011 9.99231L20.977 10.0121C17.1473 12.1132 15.7483 16.9132 17.8495 20.7429V20.7835L13.1869 31.7582C15.3034 31.7582 18.3616 33.7417 20.1507 34.8725L25.0166 37.945C26.2858 38.7461 28.7177 39.4505 30.2199 39.4505H45.9342V33.7329C45.9341 32.945 45.1692 32.055 44.3901 31.9374Z" fill="#0B4E31"/>
<path d="M28.5044 22.8385C28.5044 22.8395 27.411 27.5077 27.411 27.5077L26.9143 29.6275C26.6166 30.7989 25.3847 31.7583 24.1759 31.7583H13.1868L6.97802 33.956L0.769226 31.7582V21.755C0.787878 21.1978 0.916492 19.2506 1.62743 17.6506L2.94061 18.4725C4.99667 19.7439 8.65712 20.7836 11.0747 20.7836H17.8494H27.2812L27.2988 20.7737L28.5044 22.8385Z" fill="#10744A"/>
<path d="M50 38.3517V41.6484H46.7033L44.5055 40L46.7033 38.3517H49.2308H50Z" fill="#FF6638"/>
<path d="M46.7033 38.3516V41.6483H30.2198C28.1033 41.6483 25.0451 40.7626 23.2561 39.6329L18.3901 36.5603C17.1209 35.7581 14.6891 35.0549 13.1868 35.0549H0V31.7582H0.769238H13.1868C15.3033 31.7582 18.3615 32.6427 20.1506 33.7736L25.0165 36.8462C26.2857 37.6472 28.7176 38.3516 30.2198 38.3516H45.9341H46.7033Z" fill="#FF883E"/>
<path d="M32.3946 20.7835L34.0561 23.6318L31.2077 25.2934C31.2077 25.2923 29.2555 24.6769 29.2555 24.6769L29.5473 22.445L32.3946 20.7835Z" fill="#FFAB58"/>
<path d="M28.0242 13.2923L29.6858 16.1396L26.8374 17.8011L24.7396 17.2337L25.177 14.9527L28.0242 13.2923Z" fill="#FFAB58"/>
<path d="M31.2077 25.2923C31.2077 25.2934 27.411 27.5077 27.411 27.5077L21.3803 17.1682L25.177 14.9528L26.8374 17.8011L25.8891 18.3549L28.5979 22.9989L29.5473 22.445L31.2077 25.2923Z" fill="#FFCD71"/>
<path d="M8.24179 28.7429C8.69699 28.7429 9.06601 28.3738 9.06601 27.9186C9.06601 27.4634 8.69699 27.0944 8.24179 27.0944C7.78659 27.0944 7.41757 27.4634 7.41757 27.9186C7.41757 28.3738 7.78659 28.7429 8.24179 28.7429Z" fill="#0B4E31"/>
<path d="M4.94501 25.4462C5.40021 25.4462 5.76923 25.0772 5.76923 24.6219C5.76923 24.1667 5.40021 23.7977 4.94501 23.7977C4.4898 23.7977 4.12079 24.1667 4.12079 24.6219C4.12079 25.0772 4.4898 25.4462 4.94501 25.4462Z" fill="#0B4E31"/>
</svg>
