<svg width="50" height="50" viewBox="0 0 50 50" fill="none" xmlns="http://www.w3.org/2000/svg">
<g clip-path="url(#clip0_15_1036)">
<path d="M29.4444 0H20.5556V12.2223H29.4444V0Z" fill="#A2001D"/>
<path d="M29.4444 0H25V12.2223H29.4444V0Z" fill="#6C0014"/>
<path d="M32.8604 21.8227L32.6961 21.5348C31.9855 20.2886 32.0498 18.7248 32.8602 17.5509C34.2154 15.5875 34.4443 15.0532 34.4443 14.4444C34.4443 11.381 31.9522 8.88885 28.8888 8.88885H21.111C18.0477 8.88885 15.5555 11.381 15.5555 14.4444C15.5555 15.0532 15.7845 15.5875 17.1398 17.5509C17.9503 18.7248 18.0146 20.2887 17.304 21.5348L17.1396 21.8227C14.8347 25.8592 12.2222 30.4343 12.2222 38.3333C12.2222 42.9001 13.9793 46.7983 17.3037 49.6065L17.7695 50H32.2302L32.696 49.6065C36.0207 46.7983 37.7777 42.9001 37.7777 38.3333C37.7777 30.4344 35.1653 25.8592 32.8604 21.8227Z" fill="#FFE98F"/>
<path d="M32.8604 21.8227L32.6961 21.5348C31.9855 20.2886 32.0498 18.7248 32.8602 17.5509C34.2154 15.5875 34.4443 15.0532 34.4443 14.4444C34.4443 11.381 31.9521 8.88885 28.8888 8.88885H25V50H32.2304L32.6962 49.6065C36.0207 46.7983 37.7778 42.9001 37.7778 38.3333C37.7777 30.4344 35.1653 25.8592 32.8604 21.8227Z" fill="#FFC170"/>
<path d="M27.0712 25.1285L26.9052 24.8377C25.9304 23.1287 25 21.6666 25 21.6666C25 21.6666 23.7495 23.6899 23.0949 24.8377L22.9289 25.1285C20.7611 28.925 18.8889 32.2036 18.8889 38.3333C18.8889 40.328 19.4061 41.9775 20.4633 43.3333H29.5366C30.5939 41.9775 31.111 40.328 31.111 38.3333C31.1111 32.2037 29.2389 28.925 27.0712 25.1285Z" fill="white"/>
</g>
<defs>
<clipPath id="clip0_15_1036">
<rect width="50" height="50" fill="white"/>
</clipPath>
</defs>
</svg>
