<svg width="50" height="50" viewBox="0 0 50 50" fill="none" xmlns="http://www.w3.org/2000/svg">
<path d="M18.0741 36.4442H31.9247C31.9247 38.1782 30.5188 39.5841 28.7848 39.5841H21.2152C19.4812 39.5841 18.0741 38.1782 18.0741 36.4442Z" fill="#66645D"/>
<path d="M50 36.4442V40.2093C50 41.6026 48.8704 42.7321 47.4772 42.7321H2.5228C1.12956 42.7321 0 41.6026 0 40.2093V36.4442H1.85957H18.0741C18.0741 38.1782 19.4812 39.5841 21.2152 39.5841H28.7848C30.5188 39.5841 31.9247 38.1782 31.9247 36.4442H48.1393H50Z" fill="#999999"/>
<path d="M48.1393 9.79068V36.4441H31.9247H18.0741H1.85956V9.79068C1.85956 8.39744 2.98912 7.26788 4.38236 7.26788H45.6165C47.0097 7.26788 48.1393 8.39744 48.1393 9.79068ZM44.3672 32.345V11.2173H31.0853H5.63282V32.345H24.1606H44.3672Z" fill="#B2B1AA"/>
<path d="M44.3672 11.2173V32.345H21.776L31.0853 11.2173H44.3672Z" fill="#E59683"/>
<path d="M31.0854 11.2173L21.776 32.345H5.63284V11.2173H31.0854Z" fill="#E2BAB5"/>
</svg>
