<svg width="50" height="50" viewBox="0 0 50 50" fill="none" xmlns="http://www.w3.org/2000/svg">
<g clip-path="url(#clip0_15_968)">
<path d="M26.6236 28.2363H23.3765V45.2125H26.6236V28.2363Z" fill="#575759"/>
<path d="M26.6237 28.2363H25.0001V45.2125H26.6237V28.2363Z" fill="#474748"/>
<path d="M33.9546 43.5057H16.0465V47.8941H33.9546V43.5057Z" fill="#2A2A2A"/>
<path d="M33.9537 43.5057H25.0001V47.8941H33.9537V43.5057Z" fill="black"/>
<path d="M35.9755 46.7529H14.0235V50H35.9755V46.7529Z" fill="#575759"/>
<path d="M35.9766 46.7529H25.0001V50H35.9766V46.7529Z" fill="#474748"/>
<path d="M37.0419 28.2363H35.5729V34.8131H37.0419V28.2363Z" fill="#D9BA2C"/>
<path d="M36.3071 37.9964C35.1921 37.9964 34.2849 37.0975 34.2849 35.9926C34.2849 34.8878 35.192 33.9888 36.3071 33.9888C37.4221 33.9888 38.3294 34.8878 38.3294 35.9926C38.3293 37.0975 37.4221 37.9964 36.3071 37.9964Z" fill="#D9BA2C"/>
<path d="M44.0969 29.86H5.90308L13.8105 0H36.1894L44.0969 29.86Z" fill="#E69824"/>
<path d="M36.1894 0H25V29.86H44.0969L36.1894 0Z" fill="#CF8920"/>
<path d="M11.6047 8.32977L10.7448 11.5769H39.2552L38.3953 8.32977H11.6047Z" fill="#F1CE30"/>
<path d="M41.891 21.5303L41.0312 18.2831H8.96888L8.10883 21.5303H41.891Z" fill="#F1CE30"/>
<path d="M25 11.5769H39.2552L38.3954 8.32977H25V11.5769Z" fill="#D9BA2C"/>
<path d="M41.891 21.5303L41.0312 18.2831H25V21.5303H41.891Z" fill="#D9BA2C"/>
</g>
<defs>
<clipPath id="clip0_15_968">
<rect width="50" height="50" fill="white"/>
</clipPath>
</defs>
</svg>
