<svg width="25" height="25" viewBox="0 0 25 25" fill="none" xmlns="http://www.w3.org/2000/svg">
<path d="M20.3125 22.9167C21.1754 22.9167 21.875 22.2171 21.875 21.3542C21.875 20.4912 21.1754 19.7917 20.3125 19.7917C19.4496 19.7917 18.75 20.4912 18.75 21.3542C18.75 22.2171 19.4496 22.9167 20.3125 22.9167Z" fill="black" stroke="black" stroke-width="1.5" stroke-linecap="round" stroke-linejoin="round"/>
<path d="M9.89584 22.9167C10.7588 22.9167 11.4583 22.2171 11.4583 21.3542C11.4583 20.4912 10.7588 19.7917 9.89584 19.7917C9.0329 19.7917 8.33334 20.4912 8.33334 21.3542C8.33334 22.2171 9.0329 22.9167 9.89584 22.9167Z" fill="black" stroke="black" stroke-width="1.5" stroke-linecap="round" stroke-linejoin="round"/>
<path d="M5.20834 4.16668C5.03473 3.47223 4.16668 2.08334 2.08334 2.08334M5.20834 4.16668H22.9167L20.8333 15.625H7.29168L5.20834 4.16668Z" stroke="black" stroke-width="1.5" stroke-linecap="round" stroke-linejoin="round"/>
<path d="M20.8333 15.625H7.29166H5.44871C3.59005 15.625 2.60416 16.4388 2.60416 17.7083C2.60416 18.9779 3.59005 19.7917 5.44871 19.7917H20.3125" stroke="black" stroke-width="1.5" stroke-linecap="round" stroke-linejoin="round"/>
</svg>
