<svg width="50" height="50" viewBox="0 0 50 50" fill="none" xmlns="http://www.w3.org/2000/svg">
<g clip-path="url(#clip0_15_989)">
<path d="M32.0965 11.9318H41.3412C44.087 11.9318 46.3128 14.1577 46.3128 16.9034V41.1932C46.3128 43.9389 44.087 46.1648 41.3412 46.1648H32.0965C29.3507 46.1648 27.1249 43.9389 27.1249 41.1932V16.9034C27.1249 14.1577 29.3507 11.9318 32.0965 11.9318Z" fill="#1C7287"/>
<path d="M30.5287 11.9318H36.6702V46.1648H30.5287C28.6489 46.1648 27.1249 44.6408 27.1249 42.7609V15.3357C27.1249 13.4558 28.6487 11.9318 30.5287 11.9318Z" fill="#165C6C"/>
<path d="M44.6935 38.336H36.6702H28.7441V17.2321H36.6702H44.6935V38.336Z" fill="#32A5B9"/>
<path d="M36.6702 17.2321H28.7441V38.336H36.6702V17.2321Z" fill="#2B8A9A"/>
<path d="M8.65897 0H26.7412C29.487 0 31.7128 2.22585 31.7128 4.97159V45.0284C31.7128 47.7741 29.487 50 26.7412 50H8.65897C5.91323 50 3.68738 47.7741 3.68738 45.0284V4.97159C3.68738 2.22585 5.91323 0 8.65897 0Z" fill="#E45527"/>
<path d="M8.65897 0H17.6291V50H8.65897C5.91323 50 3.68738 47.7741 3.68738 45.0284V4.97159C3.68738 2.22585 5.91323 0 8.65897 0Z" fill="#B7461D"/>
<path d="M19.8307 43.0398H15.4273C14.8389 43.0398 14.3619 43.5168 14.3619 44.1051C14.3619 44.6935 14.8389 45.1705 15.4273 45.1705H19.8307C20.419 45.1705 20.896 44.6935 20.896 44.1051C20.896 43.5168 20.419 43.0398 19.8307 43.0398Z" fill="#E6E6E6"/>
<path d="M29.3478 38.5653H17.629H6.05231V7.74146H17.629H29.3478V38.5653Z" fill="#32A5B9"/>
<path d="M17.629 7.74146H6.05231V38.5653H17.629V7.74146Z" fill="#2B8A9A"/>
</g>
<defs>
<clipPath id="clip0_15_989">
<rect width="50" height="50" fill="white"/>
</clipPath>
</defs>
</svg>
