<svg width="50" height="50" viewBox="0 0 50 50" fill="none" xmlns="http://www.w3.org/2000/svg">
<g clip-path="url(#clip0_15_1126)">
<path d="M44.4221 29.1441C42.9327 28.7844 41.4406 28.443 39.9701 28.0152C37.4406 27.2787 34.0752 26.2195 32.7177 25.4348C32.7177 25.4348 30.2666 28.989 23.8154 25.8625C17.6066 22.8525 2.54209 14.2193 2.54209 14.2193C1.83059 15.6415 -0.654226 19.2888 0.163412 23.7064C3.66066 23.7124 14.375 27.9117 16.4846 29.0967C19.6835 30.7138 23.7077 35.7807 32.7281 35.7807H40.4903C40.4903 35.7807 43.1492 35.7807 49.9774 34.9183C49.9773 34.9183 50.6715 30.6543 44.4221 29.1441Z" fill="#C03A2B"/>
<path d="M49.9768 34.9181C49.9768 34.9181 50.6719 30.654 44.4217 29.1439C42.9322 28.7842 41.4411 28.4427 39.9697 28.015C38.7873 27.6708 37.4263 27.2552 36.1688 26.8308L36.1671 26.8317C34.8148 29.9392 35.064 32.887 36.9684 35.7806H40.4898C40.4898 35.7805 43.1488 35.7805 49.9768 34.9181Z" fill="#9E281F"/>
<path d="M1.17647 26.617C1.17647 26.617 3.40418 32.1151 3.40418 35.7805H11.1663C11.1663 35.7805 13.2862 27.4794 16.4851 29.0965C14.3747 27.9114 3.66119 23.7121 0.16394 23.7062C0.338162 24.6471 0.652914 25.6208 1.17647 26.617Z" fill="#9E281F"/>
</g>
<defs>
<clipPath id="clip0_15_1126">
<rect width="50" height="50" fill="white"/>
</clipPath>
</defs>
</svg>
