<svg width="50" height="50" viewBox="0 0 50 50" fill="none" xmlns="http://www.w3.org/2000/svg">
<g clip-path="url(#clip0_15_1017)">
<path d="M10.8265 28.2383H7.47852C7.47852 16.8541 16.7402 7.59229 28.1246 7.59229V10.9403C18.5865 10.9403 10.8265 18.7001 10.8265 28.2383Z" fill="#00A5FF"/>
<path d="M33.147 5.35992H25.335V16.5199H33.147V5.35992Z" fill="#9F7953"/>
<path d="M33.147 5.35992H29.241V16.5199H33.147V5.35992Z" fill="#896746"/>
<path d="M35.379 13.1719H23.103V25.448H35.379V13.1719Z" fill="#FFB64C"/>
<path d="M35.379 13.1719H29.241V25.448H35.379V13.1719Z" fill="#FF9800"/>
<path d="M39.0619 32.3571H19.3767V50H39.0619V32.3571Z" fill="#FFB64C"/>
<path d="M39.083 32.3571H29.241V50H39.083V32.3571Z" fill="#FF9800"/>
<path d="M38.6386 23.8194C36.059 21.2397 32.0634 20.9177 29.1303 22.853C26.197 20.9176 22.2015 21.2397 19.6219 23.8194C16.6741 26.7672 16.6741 31.5637 19.6219 34.5116L29.1302 44.0201L38.6386 34.5114C41.5864 31.5637 41.5864 26.7672 38.6386 23.8194Z" fill="#FF3D63"/>
<path d="M38.7442 23.8194C36.1659 21.241 32.1733 20.9181 29.2407 22.85V44.0152L38.7442 34.5116C41.692 31.5637 41.692 26.7672 38.7442 23.8194Z" fill="#FF0536"/>
<path d="M12.9554 27.8953C12.0224 26.3401 10.6363 25.4482 9.15265 25.4482C7.66904 25.4482 6.28289 26.3401 5.34987 27.8953C4.56363 29.2056 4.13062 30.9128 4.13062 32.7023C4.13062 34.4919 4.56363 36.199 5.34987 37.5093C6.28289 39.0645 7.66904 39.9564 9.15265 39.9564C10.6363 39.9564 12.0224 39.0645 12.9554 37.5093C13.7417 36.1991 14.1747 34.4919 14.1747 32.7023C14.1747 30.9128 13.7415 29.2057 12.9554 27.8953Z" fill="#9F7953"/>
<path d="M45.8694 7.59198H39.1734V10.94H45.8694V7.59198Z" fill="#0088FF"/>
<path d="M36.9609 4.73505L39.3283 7.10242L44.063 2.36769L41.6956 0.000327337L36.9609 4.73505Z" fill="#00A5FF"/>
<path d="M36.9607 13.5278L41.6955 18.2625L44.0628 15.8951L39.3281 11.1604L36.9607 13.5278Z" fill="#00A5FF"/>
<path d="M12.9554 27.8953C12.0224 26.3401 10.6363 25.4482 9.15265 25.4482V39.9563C10.6363 39.9563 12.0224 39.0644 12.9554 37.5092C13.7417 36.199 14.1747 34.4918 14.1747 32.7022C14.1747 30.9127 13.7415 29.2057 12.9554 27.8953Z" fill="#896746"/>
</g>
<defs>
<clipPath id="clip0_15_1017">
<rect width="50" height="50" fill="white"/>
</clipPath>
</defs>
</svg>
