<svg width="50" height="50" viewBox="0 0 50 50" fill="none" xmlns="http://www.w3.org/2000/svg">
<g clip-path="url(#clip0_15_1100)">
<path d="M24.9996 49.9993C38.8065 49.9993 49.9992 38.8066 49.9992 24.9997C49.9992 11.1928 38.8065 0.00012207 24.9996 0.00012207C11.1927 0.00012207 0 11.1928 0 24.9997C0 38.8066 11.1927 49.9993 24.9996 49.9993Z" fill="#FFEC97"/>
<path d="M50 25C50 23.8875 49.9264 22.7923 49.7856 21.7181L35.6016 7.53436H32.1646V10.9805C32.1646 13.9228 30.3666 16.4649 27.8153 17.5644L17.8355 7.53436H14.3984C14.3984 7.53436 15.4013 18.7644 9.60977 20.1108V40.8332L17.6895 48.9129C20.002 49.619 22.4565 50 25 50C38.8071 50 50 38.8071 50 25Z" fill="#FFDB2D"/>
<path d="M35.6016 7.53436H32.1646V10.9805C32.1646 14.9209 28.9405 18.145 25 18.145C21.0595 18.145 17.8355 14.921 17.8355 10.9805V7.53436H14.3984C14.3984 7.53436 15.4013 18.7644 9.60977 20.1108V40.8332H40.3903V20.1107C34.5987 18.7643 35.6016 7.53436 35.6016 7.53436Z" fill="#394CE2"/>
<path d="M40.3902 20.1107C34.5987 18.7643 35.6016 7.53436 35.6016 7.53436H32.1645V10.9805C32.1645 14.9209 28.9405 18.145 25 18.145C24.9999 18.145 24.9998 18.145 24.9997 18.145V40.8332H40.3903V20.1107H40.3902Z" fill="#1B2DDD"/>
<path d="M40.3902 24.9997H9.61005V27.9772H40.3902V24.9997Z" fill="#00DFC1"/>
<path d="M40.3902 24.9997H24.9996V27.9772H40.3902V24.9997Z" fill="#00B5A3"/>
<path d="M40.3902 32.1669H9.61005V35.1444H40.3902V32.1669Z" fill="#00DFC1"/>
<path d="M40.3902 32.1669H24.9996V35.1444H40.3902V32.1669Z" fill="#00B5A3"/>
</g>
<defs>
<clipPath id="clip0_15_1100">
<rect width="50" height="50" fill="white"/>
</clipPath>
</defs>
</svg>
