<svg width="50" height="50" viewBox="0 0 50 50" fill="none" xmlns="http://www.w3.org/2000/svg">
<path d="M49.9738 15.5238L39.6709 5.22082L39.5908 5.13839L39.5797 5.12967L39.575 5.10272L30.7939 2.01294H19.1799L10.4005 5.10272L10.3941 5.11381L10.3846 5.13125L10.3941 5.11381L10.303 5.21844L0 15.523L7.65944 23.3061L11.4396 19.403V47.987H38.39V19.403L42.2423 23.3061L49.9738 15.5238Z" fill="#F94646"/>
<path d="M49.9739 15.5238L39.6709 5.22082L39.575 5.10272L39.5908 5.13839L39.5797 5.12967L39.575 5.10272L30.7939 2.01294H19.1799L10.3846 5.10747L10.4005 5.11857L10.3846 5.13125L10.303 5.21686L2.42712 17.9477L7.65945 23.3053L11.4396 19.403V47.987H38.39V19.403L42.2423 23.3061L49.9739 15.5238Z" fill="#E53030"/>
<path d="M19.3662 47.987H38.39V19.403L42.2423 23.3061L50 15.5238L39.5734 5.12967L39.5916 5.13839L39.5805 5.12967L39.5758 5.10272L30.7939 2.01294H19.3662" fill="#CC2323"/>
<path d="M38.2869 19.403L42.2772 23.3061L49.9739 15.5237L39.575 5.13439L39.5908 5.13836L39.5797 5.12964L39.575 5.13439" fill="#B20606"/>
<path d="M25.0242 11.5248C25.5988 9.93951 31.3837 2.58286 31.4827 2.40293L29.2086 2.01294H20.7652L18.4927 2.40293C18.5918 2.58286 24.3766 9.93951 24.9497 11.5248H25.0242Z" fill="#B20606"/>
<path d="M25.0242 9.93951C25.5988 8.35419 31.3837 2.58286 31.4827 2.40293L29.2086 2.01294H20.7652L18.4927 2.40293C18.5918 2.58286 24.3766 8.35419 24.9497 9.93951H25.0242Z" fill="#4F0606"/>
<path d="M25.0242 9.93954C25.5988 8.35422 31.3837 2.58289 31.4827 2.40295L29.2086 2.80562H20.7652L18.4927 2.40295C18.5918 2.58289 24.3766 8.35422 24.9497 9.93954H25.0242Z" fill="#2D0202"/>
<path d="M30.6544 16.2958C27.5242 13.1672 22.4489 13.1672 19.3202 16.2966C16.19 19.4276 16.19 24.5022 19.3202 27.6316C22.4489 30.7618 27.5242 30.7618 30.6544 27.6316C33.7854 24.5014 33.7854 19.426 30.6544 16.2958ZM22.9871 23.9632C21.8813 22.8582 21.8813 21.0668 22.9871 19.9619C24.0912 18.8569 25.8834 18.8569 26.9876 19.9619C28.0934 21.0684 28.0934 22.8582 26.9876 23.9632C25.8834 25.0682 24.092 25.069 22.9871 23.9632Z" fill="#EFD27F"/>
<path d="M30.297 16.6549C27.3649 13.7229 22.6106 13.7229 19.6785 16.6549C16.7465 19.5869 16.7465 24.3405 19.6785 27.2725C22.6106 30.2054 27.3649 30.2062 30.297 27.2733C33.229 24.3413 33.229 19.5869 30.297 16.6549ZM23.1139 23.838C22.0779 22.8027 22.0779 21.1239 23.1139 20.0895C24.1483 19.0543 25.8264 19.0535 26.8624 20.0887C27.8984 21.1239 27.8968 22.8027 26.8624 23.8372C25.8264 24.8724 24.1475 24.8732 23.1139 23.838Z" fill="#E2A050"/>
<path d="M32.4958 21.8293H27.6423C27.6392 21.8293 27.6392 21.9245 27.6376 21.9387C27.613 23.3837 26.4359 24.5807 24.9885 24.5807C23.5237 24.5799 22.3363 23.4115 22.3363 21.9459L17.4797 21.9554C17.4797 26.101 20.8405 29.4 24.9869 29.4C29.1341 29.4016 32.4974 25.7926 32.4958 21.8293Z" fill="#D38939"/>
<path d="M27.743 27.7489C27.8254 27.7568 27.9087 27.7616 27.9919 27.764C28.6022 27.9011 29.2689 27.7338 29.7429 27.259C29.9101 27.0926 30.037 26.9024 30.1281 26.701C30.6346 26.0201 30.7717 25.1514 30.5371 24.3698C30.5633 24.3127 30.5894 24.2549 30.6116 24.1962C30.706 24.1257 30.7955 24.0488 30.8827 23.964C31.711 23.1356 31.8688 21.8928 31.3639 20.9051C31.5589 20.0506 31.3266 19.1193 30.6608 18.4542C30.4135 18.2069 30.1281 18.019 29.8229 17.8898C29.8134 17.228 29.5582 16.5677 29.0517 16.0612C28.2234 15.2321 26.9789 15.0735 25.9896 15.5816C25.1906 15.064 24.1705 15.022 23.3358 15.4635C22.4504 15.2162 21.4612 15.4389 20.766 16.1357C20.3436 16.5574 20.0986 17.0877 20.0217 17.6362C19.9068 17.7194 19.7927 17.8114 19.6888 17.9168C19.3139 18.2917 19.0777 18.7515 18.977 19.2326C18.8312 19.3214 18.6924 19.426 18.5664 19.552C18.0123 20.1053 17.8229 20.8861 17.9933 21.5955C17.6668 22.5213 17.8697 23.593 18.6092 24.3326C18.6433 24.3659 18.6774 24.3936 18.7099 24.4245C18.7329 24.8763 18.9144 25.3218 19.2592 25.6674C19.3194 25.7292 19.386 25.7823 19.4526 25.8346C19.5596 26.2968 19.7919 26.7391 20.1541 27.0997C20.6138 27.5603 21.202 27.8123 21.8028 27.8623C21.8242 27.8852 21.8448 27.9114 21.8678 27.9336C22.7271 28.7944 24.035 28.93 25.0416 28.3497C25.7772 28.8594 26.7942 28.7873 27.4473 28.1333C27.5662 28.0152 27.6637 27.8852 27.743 27.7489ZM22.9871 23.9632C21.8813 22.8582 21.8813 21.0668 22.9871 19.9618C24.0912 18.8569 25.8834 18.8569 26.9876 19.9618C28.0934 21.0684 28.0934 22.8582 26.9876 23.9632C25.8834 25.0681 24.092 25.0689 22.9871 23.9632Z" fill="#E53030"/>
<path d="M20.5806 25.6857C20.5917 25.7602 20.6036 25.8339 20.6194 25.9044C20.6273 26.4696 20.9119 27.0165 21.4263 27.3352C21.6079 27.4454 21.7997 27.5167 21.9963 27.5547C22.6978 27.8575 23.4872 27.7965 24.1237 27.4271C24.1776 27.4398 24.2323 27.4509 24.2894 27.4572C24.3719 27.5238 24.4583 27.5888 24.5494 27.6443C25.4475 28.1984 26.5699 28.0787 27.33 27.4295C28.1179 27.4216 28.8844 27.026 29.3283 26.3047C29.4956 26.0344 29.5978 25.7443 29.647 25.4534C30.2256 25.306 30.7512 24.9445 31.088 24.3968C31.6389 23.4971 31.5216 22.3755 30.8716 21.6146C31.1562 20.8061 30.9786 19.9056 30.4214 19.2651C30.4523 18.4408 30.0497 17.6196 29.2958 17.1567C28.8393 16.8745 28.3232 16.7706 27.8262 16.8182C27.7288 16.7342 27.6265 16.6541 27.5131 16.5828C27.1057 16.3331 26.6539 16.2237 26.2092 16.234C26.1022 16.1254 25.9817 16.0263 25.8454 15.9415C25.243 15.5721 24.5217 15.5682 23.9367 15.8654C23.0592 15.7727 22.1627 16.1746 21.6689 16.9767C21.6475 17.0116 21.63 17.0489 21.6118 17.0845C21.2202 17.1987 20.8659 17.4499 20.6369 17.8249C20.5933 17.8915 20.5608 17.9604 20.5298 18.0278C20.1462 18.2196 19.8085 18.5145 19.5684 18.9053C19.26 19.4038 19.1625 19.9714 19.2449 20.5088C19.2291 20.5318 19.2109 20.5556 19.1958 20.5809C18.6211 21.5139 18.7749 22.6854 19.493 23.4456C19.2006 24.1963 19.4748 25.0713 20.185 25.5081C20.3119 25.5866 20.4458 25.6444 20.5806 25.6857ZM22.9031 20.7315C23.6402 19.5346 25.2081 19.1629 26.405 19.8977C27.6035 20.6348 27.9039 22.0989 27.1668 23.2958C26.4248 24.4935 24.9386 24.9738 23.7361 24.2359C22.5392 23.5003 22.1659 21.9308 22.9031 20.7315Z" fill="#CC2323"/>
<path d="M28.449 15.9239C28.4657 15.7769 28.117 15.6167 27.6703 15.566C27.2236 15.5153 26.848 15.5934 26.8313 15.7405C26.8146 15.8875 27.1632 16.0477 27.6099 16.0984C28.0567 16.1491 28.4323 16.071 28.449 15.9239Z" fill="#F94646"/>
<path d="M22.4522 15.7895C22.4041 15.665 22.0599 15.6818 21.6834 15.8271C21.3068 15.9724 21.0406 16.1912 21.0886 16.3157C21.1367 16.4403 21.4809 16.4235 21.8575 16.2782C22.234 16.1329 22.5003 15.9141 22.4522 15.7895Z" fill="#F94646"/>
<path d="M18.9244 19.7603C18.8469 19.7126 18.6659 19.8658 18.5201 20.1025C18.3744 20.3393 18.3192 20.5699 18.3967 20.6176C18.4742 20.6653 18.6552 20.5121 18.801 20.2754C18.9467 20.0387 19.0019 19.8081 18.9244 19.7603Z" fill="#F94646"/>
<path d="M18.3161 21.9794C18.1769 21.9948 18.1021 22.3512 18.1492 22.7755C18.1962 23.1997 18.3472 23.5311 18.4864 23.5156C18.6257 23.5002 18.7004 23.1438 18.6534 22.7195C18.6063 22.2953 18.4553 21.9639 18.3161 21.9794Z" fill="#F94646"/>
<path d="M20.8921 16.6375C20.9634 16.6716 20.9373 16.8745 20.8334 17.0893C20.7312 17.3057 20.5885 17.4539 20.518 17.4175C20.4466 17.3858 20.4728 17.1829 20.5766 16.9673C20.6805 16.7516 20.8223 16.6034 20.8921 16.6375Z" fill="#F94646"/>
<path d="M25.9389 17.9485C25.8493 18.0381 25.7019 18.0381 25.6123 17.9485C25.5228 17.8582 25.5228 17.7115 25.6123 17.6212L26.4763 16.7572C26.5659 16.6668 26.7133 16.6676 26.8029 16.7572C26.8925 16.8475 26.8925 16.9934 26.8029 17.0837L25.9389 17.9485Z" fill="#FFEFC7"/>
<path d="M27.7779 19.147C27.7961 19.2739 27.7113 19.3928 27.5845 19.4118C27.4576 19.4308 27.3395 19.3436 27.3213 19.2176L27.1358 18.0104C27.116 17.8835 27.2024 17.7654 27.3292 17.7472C27.4545 17.7282 27.5742 17.8138 27.5924 17.9398L27.7779 19.147Z" fill="#A0D128"/>
<path d="M22.0097 19.9342C22.0929 20.034 22.0763 20.1799 21.9772 20.2599C21.8781 20.3408 21.7323 20.3257 21.6522 20.2259L20.8825 19.2763C20.8017 19.1772 20.8175 19.0329 20.9166 18.9521C21.0157 18.8712 21.1616 18.8871 21.2416 18.9861L22.0097 19.9342Z" fill="#A0D128"/>
<path d="M21.9851 24.9437C22.0842 25.0262 22.0969 25.1712 22.016 25.2695C21.9328 25.3662 21.787 25.3797 21.6895 25.2973L20.751 24.5149C20.6535 24.4325 20.6408 24.2874 20.7232 24.1891C20.8057 24.0908 20.9507 24.0781 21.0482 24.1606L21.9851 24.9437Z" fill="#A0D128"/>
<path d="M20.4878 22.282C20.3721 22.2265 20.3205 22.091 20.3744 21.9737C20.4268 21.8587 20.5663 21.808 20.6812 21.8611L21.7909 22.3724C21.9066 22.4263 21.9566 22.5642 21.9043 22.6791C21.852 22.7949 21.714 22.8456 21.5975 22.7933L20.4878 22.282Z" fill="#FFEFC7"/>
<path d="M28.8123 21.2571C28.7766 21.1366 28.8464 21.0074 28.9685 20.9717C29.0905 20.9353 29.2174 21.005 29.2562 21.1271L29.6042 22.2978C29.6398 22.4223 29.5685 22.5491 29.448 22.5848C29.3259 22.622 29.196 22.5515 29.1603 22.4294L28.8123 21.2571Z" fill="#FFEFC7"/>
<path d="M22.5003 18.2402C22.4012 18.2172 22.3458 18.096 22.3751 17.9723C22.406 17.8479 22.5098 17.7678 22.6089 17.7916L23.553 18.0191C23.6521 18.0421 23.7075 18.1626 23.6766 18.2862C23.6473 18.4099 23.5435 18.4923 23.4444 18.4677L22.5003 18.2402Z" fill="#FFEFC7"/>
<path d="M29.0508 20.0665C28.9795 20.1379 28.8479 20.1236 28.7583 20.034C28.6672 19.9429 28.6529 19.8129 28.7258 19.7407L29.4115 19.0527C29.4844 18.9806 29.6144 18.9949 29.7056 19.086C29.7951 19.1756 29.811 19.3072 29.7381 19.3793L29.0508 20.0665Z" fill="#91EDEA"/>
<path d="M20.4259 21.3443C20.3546 21.4156 20.223 21.4014 20.1335 21.3102C20.0439 21.2206 20.0264 21.0898 20.0994 21.0169L20.7866 20.3305C20.8579 20.2584 20.9879 20.2734 21.0775 20.363C21.1687 20.4533 21.1845 20.5849 21.1132 20.6571L20.4259 21.3443Z" fill="#91EDEA"/>
<path d="M27.5432 25.363C27.4425 25.3488 27.3744 25.2362 27.3934 25.1094C27.4116 24.9826 27.5083 24.8914 27.6098 24.9065L28.5713 25.0444C28.6704 25.0595 28.7369 25.1728 28.7203 25.298C28.7021 25.4241 28.6054 25.5144 28.5039 25.5018L27.5432 25.363Z" fill="#91EDEA"/>
<path d="M24.8783 17.2304C24.8926 17.331 24.8006 17.427 24.6738 17.4444C24.547 17.461 24.4336 17.3937 24.4202 17.293L24.2902 16.3299C24.2743 16.2308 24.3663 16.1349 24.4947 16.1167C24.6199 16.1001 24.7348 16.1682 24.7467 16.2673L24.8783 17.2304Z" fill="#91EDEA"/>
<path d="M24.2997 25.4027C24.2283 25.329 24.2473 25.1982 24.3385 25.1094C24.4312 25.0222 24.5628 25.0095 24.6326 25.0832L25.3047 25.7847C25.3761 25.8577 25.3571 25.9884 25.2643 26.0772C25.1732 26.1652 25.0416 26.1771 24.9718 26.105L24.2997 25.4027Z" fill="#91EDEA"/>
<path d="M28.2225 23.8213C28.1528 23.7484 28.1718 23.6168 28.263 23.5296C28.3573 23.4416 28.4889 23.4297 28.5586 23.5043L29.2276 24.2073C29.2974 24.2818 29.2784 24.4134 29.1872 24.5014C29.0945 24.5886 28.9613 24.6013 28.8931 24.526L28.2225 23.8213Z" fill="#A0D128"/>
<path d="M26.0507 25.6579C26.0325 25.5588 26.1189 25.4589 26.2441 25.4344C26.3694 25.4122 26.4859 25.4732 26.5041 25.5739L26.684 26.529C26.7023 26.6281 26.6159 26.7288 26.4906 26.7525C26.3638 26.7747 26.2473 26.7129 26.2291 26.6138L26.0507 25.6579Z" fill="#FFEFC7"/>
<path d="M23.2193 25.4082C23.2455 25.3091 23.3652 25.2552 23.4888 25.2869C23.6125 25.3178 23.6933 25.4232 23.6687 25.5215L23.4286 26.464C23.4024 26.5615 23.2827 26.6162 23.1591 26.5845C23.0354 26.5536 22.9546 26.4474 22.9791 26.3483L23.2193 25.4082Z" fill="#FFEFC7"/>
<path d="M22.903 20.7315C23.6402 19.5346 25.2081 19.1629 26.405 19.8977C27.6035 20.6348 27.976 22.2043 27.2412 23.402C27.2198 23.4353 27.1976 23.463 27.1747 23.4955C27.3015 23.3576 27.418 23.207 27.5187 23.0421C28.3946 21.6209 27.9507 19.7597 26.531 18.8862C25.1098 18.0111 23.2486 18.4558 22.3743 19.8747C21.5008 21.2967 21.9439 23.1579 23.3636 24.0314C23.4706 24.0964 23.5784 24.1511 23.6886 24.2026C22.5313 23.4535 22.1754 21.9134 22.903 20.7315Z" fill="#B20606"/>
<path d="M23.4095 17.0917C23.5255 17.0917 23.6196 16.9976 23.6196 16.8816C23.6196 16.7656 23.5255 16.6716 23.4095 16.6716C23.2935 16.6716 23.1995 16.7656 23.1995 16.8816C23.1995 16.9976 23.2935 17.0917 23.4095 17.0917Z" fill="#EFD27F"/>
<path d="M27.46 24.3936C27.576 24.3936 27.67 24.2996 27.67 24.1836C27.67 24.0676 27.576 23.9735 27.46 23.9735C27.344 23.9735 27.2499 24.0676 27.2499 24.1836C27.2499 24.2996 27.344 24.3936 27.46 24.3936Z" fill="#EFD27F"/>
<path d="M21.416 18.3528C21.5316 18.3528 21.6252 18.2591 21.6252 18.1435C21.6252 18.028 21.5316 17.9343 21.416 17.9343C21.3004 17.9343 21.2067 18.028 21.2067 18.1435C21.2067 18.2591 21.3004 18.3528 21.416 18.3528Z" fill="#FFCE00"/>
<path d="M25.6971 27.3367C25.8131 27.3367 25.9072 27.2427 25.9072 27.1267C25.9072 27.0107 25.8131 26.9166 25.6971 26.9166C25.5811 26.9166 25.4871 27.0107 25.4871 27.1267C25.4871 27.2427 25.5811 27.3367 25.6971 27.3367Z" fill="#FFCE00"/>
<path d="M21.3851 21.4521C21.4582 21.4521 21.5174 21.3928 21.5174 21.3197C21.5174 21.2466 21.4582 21.1873 21.3851 21.1873C21.312 21.1873 21.2527 21.2466 21.2527 21.3197C21.2527 21.3928 21.312 21.4521 21.3851 21.4521Z" fill="#FFCE00"/>
<path d="M27.7374 26.2469C27.8105 26.2469 27.8698 26.1876 27.8698 26.1145C27.8698 26.0414 27.8105 25.9821 27.7374 25.9821C27.6643 25.9821 27.605 26.0414 27.605 26.1145C27.605 26.1876 27.6643 26.2469 27.7374 26.2469Z" fill="#FFCE00"/>
<path d="M22.3339 19.1938C22.407 19.1938 22.4663 19.1345 22.4663 19.0614C22.4663 18.9883 22.407 18.929 22.3339 18.929C22.2608 18.929 22.2015 18.9883 22.2015 19.0614C22.2015 19.1345 22.2608 19.1938 22.3339 19.1938Z" fill="#91EDEA"/>
<path d="M28.4667 22.5562C28.5394 22.5562 28.5983 22.4973 28.5983 22.4246C28.5983 22.3519 28.5394 22.293 28.4667 22.293C28.3941 22.293 28.3351 22.3519 28.3351 22.4246C28.3351 22.4973 28.3941 22.5562 28.4667 22.5562Z" fill="#91EDEA"/>
<path d="M20.3562 20.0277C20.3071 20.0776 20.2215 20.0792 20.1692 20.0269C20.1184 19.9761 20.12 19.8905 20.1707 19.8406C20.2215 19.7899 20.3055 19.7899 20.3562 19.8406C20.4093 19.8921 20.4093 19.9754 20.3562 20.0277Z" fill="#FFEFC7"/>
<path d="M29.9965 20.921C30.1121 20.921 30.2058 20.8273 30.2058 20.7117C30.2058 20.5961 30.1121 20.5024 29.9965 20.5024C29.8809 20.5024 29.7872 20.5961 29.7872 20.7117C29.7872 20.8273 29.8809 20.921 29.9965 20.921Z" fill="#FFCE00"/>
<path d="M20.9412 23.4352C21.0568 23.4352 21.1505 23.3416 21.1505 23.226C21.1505 23.1104 21.0568 23.0167 20.9412 23.0167C20.8256 23.0167 20.7319 23.1104 20.7319 23.226C20.7319 23.3416 20.8256 23.4352 20.9412 23.4352Z" fill="#FFCE00"/>
<path d="M22.5757 24.5593C22.6912 24.5593 22.7849 24.4656 22.7849 24.35C22.7849 24.2344 22.6912 24.1407 22.5757 24.1407C22.4601 24.1407 22.3664 24.2344 22.3664 24.35C22.3664 24.4656 22.4601 24.5593 22.5757 24.5593Z" fill="#91EDEA"/>
<path d="M24.4685 26.8192C24.5845 26.8192 24.6786 26.7251 24.6786 26.6091C24.6786 26.4931 24.5845 26.399 24.4685 26.399C24.3525 26.399 24.2585 26.4931 24.2585 26.6091C24.2585 26.7251 24.3525 26.8192 24.4685 26.8192Z" fill="#FFCE00"/>
<path d="M28.8424 18.4931C28.958 18.4931 29.0516 18.3994 29.0516 18.2838C29.0516 18.1683 28.958 18.0746 28.8424 18.0746C28.7268 18.0746 28.6331 18.1683 28.6331 18.2838C28.6331 18.3994 28.7268 18.4931 28.8424 18.4931Z" fill="#EFD27F"/>
<path d="M29.6985 23.6478C29.814 23.6478 29.9077 23.5541 29.9077 23.4385C29.9077 23.3229 29.814 23.2292 29.6985 23.2292C29.5829 23.2292 29.4892 23.3229 29.4892 23.4385C29.4892 23.5541 29.5829 23.6478 29.6985 23.6478Z" fill="#EFD27F"/>
</svg>
