<svg width="14" height="14" viewBox="0 0 14 14" fill="none" xmlns="http://www.w3.org/2000/svg">
<path d="M11.8178 10.7393C11.8003 10.3893 11.7723 10.038 11.7661 9.68713C11.7591 9.31131 11.746 8.93594 11.746 8.56144C11.746 8.20006 11.7451 7.83912 11.7381 7.47862C11.7303 7.12206 11.7215 6.76594 11.7189 6.4085C11.7128 5.66431 11.7049 4.91838 11.6839 4.17419C11.669 3.6435 11.655 3.11412 11.6603 2.58256C11.6655 2.02037 11.6953 1.45819 11.7014 0.896438C11.7031 0.700438 11.5369 0.53725 11.3426 0.53725C11.3291 0.53725 11.3173 0.543813 11.3037 0.545125C11.2263 0.47775 11.1243 0.4375 11.0211 0.4375C10.9139 0.4375 10.808 0.476438 10.7341 0.559563C10.6772 0.622563 10.6177 0.681187 10.5652 0.748562C10.5026 0.827312 10.4418 0.90825 10.3806 0.98875C10.213 1.204 10.038 1.41312 9.87001 1.62837C9.77244 1.75262 9.67138 1.87731 9.56244 1.99369C9.55151 1.98625 9.54101 1.97881 9.53007 1.97138C9.45263 1.90488 9.37826 1.83444 9.30082 1.76837C9.19844 1.68 9.10657 1.58113 9.01557 1.4805C8.92632 1.38338 8.83444 1.28888 8.74869 1.18869C8.67519 1.10294 8.59644 1.02419 8.51419 0.948063C8.45644 0.894688 8.39432 0.843938 8.32694 0.803688C8.16944 0.707438 7.97082 0.705687 7.80938 0.789687C7.67638 0.859687 7.57226 0.990938 7.47426 1.10206C7.30188 1.29894 7.17632 1.53212 7.02013 1.74169C6.96632 1.81212 6.91207 1.88256 6.84557 1.9425C6.82763 1.95869 6.80707 1.97269 6.78826 1.98844C6.74494 1.9495 6.69901 1.91275 6.65744 1.87075C6.57126 1.78325 6.49032 1.69137 6.41244 1.59644C6.27726 1.41181 6.15913 1.21581 6.02176 1.03294C5.98501 0.983938 5.94913 0.935812 5.91413 0.885063C5.81263 0.739813 5.67963 0.619938 5.48932 0.619938C5.16819 0.619938 4.97788 0.937563 4.81163 1.16813C4.65326 1.38775 4.49488 1.60737 4.33432 1.82569C4.30282 1.869 4.27176 1.91231 4.24157 1.95606C4.21794 1.93113 4.19476 1.90575 4.17157 1.88081C4.03157 1.73031 3.90994 1.56144 3.76338 1.41662C3.61551 1.27137 3.46413 1.12963 3.32238 0.97825C3.25676 0.907375 3.19376 0.83475 3.12988 0.763C3.10101 0.7315 3.07213 0.7 3.04151 0.6685C2.93782 0.564375 2.81532 0.5145 2.67094 0.504875C2.66307 0.504 2.65563 0.504 2.64776 0.504C2.53401 0.504 2.43382 0.564813 2.36294 0.651C2.23957 0.70525 2.14638 0.82775 2.15251 0.96775C2.18051 1.72944 2.15601 2.49112 2.15776 3.25281C2.15863 3.997 2.17788 4.74031 2.19451 5.4845C2.20238 5.85244 2.22776 6.21906 2.24176 6.587C2.25751 6.96894 2.27938 7.35044 2.29076 7.73237C2.31263 8.47306 2.30476 9.21375 2.30913 9.95444C2.31263 10.4615 2.30563 10.9672 2.30651 11.4743C2.30651 11.7176 2.30301 11.9613 2.30301 12.2054C2.30388 12.4399 2.29601 12.6766 2.30126 12.9119C2.30257 12.9548 2.31394 12.9946 2.32794 13.0336C2.32838 13.1324 2.36469 13.2326 2.43338 13.3013C2.58126 13.4492 2.80176 13.4334 2.95182 13.3013C3.16532 13.1132 3.37401 12.9198 3.57613 12.7199C3.72269 12.5755 3.86576 12.4254 4.02107 12.2907C4.03026 12.3047 4.03988 12.3182 4.04951 12.3322C4.10726 12.4101 4.16588 12.4775 4.23501 12.544C4.34526 12.6481 4.45988 12.7461 4.56138 12.8599C4.61651 12.9202 4.66901 12.9832 4.72151 13.0462C4.77226 13.1066 4.82913 13.1565 4.88688 13.209C4.94201 13.2597 4.99451 13.3131 5.04876 13.3639C5.09863 13.4111 5.15201 13.454 5.20888 13.4934C5.27276 13.538 5.37163 13.5555 5.44601 13.5616C5.50638 13.566 5.56413 13.5529 5.62363 13.5432C5.71376 13.5284 5.80826 13.4671 5.88176 13.4146C5.91938 13.3884 5.95701 13.3612 5.99376 13.3332C6.07776 13.2685 6.16263 13.2046 6.24138 13.1338C6.35601 13.0314 6.46451 12.922 6.57126 12.8113C6.75807 12.6201 6.94532 12.4246 7.14876 12.2513C7.30626 12.4456 7.46507 12.6385 7.62213 12.8332C7.70176 12.9329 7.78401 13.0292 7.86888 13.1241C7.90301 13.1635 7.93976 13.2002 7.97651 13.2361C7.99663 13.2562 8.01588 13.2764 8.03776 13.2939C8.06663 13.3262 8.09988 13.3507 8.13838 13.3656C8.17076 13.3787 8.20313 13.3928 8.23551 13.4059C8.27751 13.4138 8.32038 13.419 8.36238 13.4225C8.45163 13.4313 8.56013 13.3805 8.63013 13.3315C8.70013 13.2825 8.76051 13.2247 8.82088 13.1652C8.87513 13.1127 8.92501 13.0576 8.97663 13.0025C9.07988 12.8914 9.17788 12.775 9.27326 12.6564C9.36513 12.5427 9.45263 12.4263 9.54451 12.3126C9.57863 12.271 9.61276 12.2277 9.64863 12.1852C9.67882 12.2111 9.70944 12.236 9.74182 12.2592C9.80613 12.3056 9.87132 12.3506 9.93476 12.397C10.0196 12.4661 10.1041 12.5392 10.1811 12.6153C10.2274 12.6617 10.2686 12.7133 10.3176 12.7588C10.3762 12.8135 10.4418 12.8612 10.507 12.9093C10.5704 12.9587 10.6334 13.0078 10.6978 13.0563C10.8649 13.1924 11.0167 13.3556 11.2013 13.4676C11.3842 13.5796 11.634 13.5087 11.7408 13.3267C11.7941 13.2357 11.809 13.1246 11.781 13.0217C11.7779 13.0108 11.7701 13.0038 11.7661 12.9933C11.8094 12.9351 11.8401 12.8669 11.8409 12.7894C11.8519 12.1069 11.851 11.4223 11.8178 10.7393ZM10.3836 0.984812C10.4029 0.960312 10.4221 0.935375 10.4414 0.910875C10.4099 0.951125 10.3784 0.99225 10.3469 1.0325C10.3596 1.01631 10.3718 1.00056 10.3836 0.984812ZM10.7402 12.0903C10.675 12.0234 10.5984 11.9713 10.5241 11.9158C10.4038 11.8217 10.2808 11.7342 10.1548 11.6467C10.1028 11.6012 10.0538 11.5526 10.0004 11.508C9.95051 11.4669 9.89976 11.424 9.84376 11.3916C9.77551 11.3527 9.70244 11.3348 9.62938 11.3348C9.55369 11.3348 9.47757 11.354 9.40582 11.3881C9.30082 11.438 9.21332 11.5342 9.13544 11.62C9.07419 11.6874 9.01644 11.7582 8.95782 11.8282C8.76488 12.0606 8.57851 12.2968 8.36238 12.5064C8.28013 12.4294 8.20707 12.3428 8.13313 12.2574C7.92663 12.0203 7.73107 11.7714 7.53769 11.5238C7.47907 11.4485 7.35832 11.4117 7.26732 11.4117C7.25988 11.4117 7.25332 11.4157 7.24588 11.4161C7.19819 11.3964 7.14788 11.3833 7.09538 11.3833C7.05994 11.3833 7.02451 11.3881 6.98951 11.3982C6.91426 11.4192 6.86788 11.4559 6.80401 11.4901C6.73051 11.5286 6.66663 11.5819 6.60188 11.6353C6.53626 11.6896 6.47588 11.7508 6.41376 11.8094C6.35163 11.8672 6.28776 11.9223 6.22563 11.9809C6.11101 12.0886 6.00513 12.2067 5.89313 12.3178C5.78376 12.4263 5.67482 12.5348 5.55626 12.6328C5.54269 12.6429 5.52869 12.6525 5.51469 12.6621C5.48451 12.6359 5.45432 12.6101 5.42326 12.5856C5.32088 12.5051 5.24126 12.4001 5.15113 12.3064C5.06626 12.2189 4.97613 12.1367 4.88163 12.0588C4.80419 11.9949 4.72676 11.9368 4.66069 11.8624C4.60032 11.7788 4.54038 11.6953 4.46776 11.6209C4.44413 11.5973 4.42313 11.5701 4.39951 11.5465C4.29013 11.4389 4.13876 11.403 3.99044 11.4354C3.86007 11.4643 3.75419 11.5605 3.65357 11.6419C3.57832 11.7014 3.51182 11.7723 3.44269 11.8396C3.30969 11.9687 3.18019 12.1012 3.04719 12.2303C3.04807 12.1253 3.04938 12.0203 3.04894 11.9153C3.04719 11.5561 3.05069 11.1974 3.05244 10.8386C3.05769 10.1224 3.06469 9.40625 3.05857 8.68919C3.05594 8.31031 3.05332 7.93012 3.03582 7.55037C3.01832 7.17281 2.99994 6.79481 2.98244 6.41725C2.96494 6.04013 2.93694 5.66344 2.92557 5.28544C2.91507 4.92188 2.89144 4.55875 2.88094 4.19563C2.86432 3.6645 2.84244 3.13381 2.84244 2.60225C2.84201 2.27894 2.84769 1.95562 2.85076 1.63231C2.88619 1.66819 2.92032 1.70538 2.95663 1.74081C3.03976 1.82306 3.12376 1.90356 3.20688 1.98625C3.29613 2.07375 3.37313 2.17438 3.45276 2.26975C3.60501 2.45438 3.77432 2.6215 3.92919 2.80263C3.98869 2.87263 4.04907 2.94437 4.12957 2.99075C4.28794 3.0835 4.53426 3.06775 4.65413 2.91725C4.71538 2.84025 4.73813 2.80175 4.77226 2.70725C4.77751 2.6915 4.78188 2.67662 4.78626 2.66087C4.79457 2.6355 4.80376 2.60969 4.81294 2.58431C4.89607 2.40975 5.00851 2.24963 5.11963 2.09169C5.23732 1.92719 5.35369 1.76137 5.47357 1.59775C5.60088 1.77056 5.72294 1.94731 5.86119 2.11181C6.03532 2.31831 6.22257 2.51037 6.42776 2.68625C6.50651 2.75362 6.58963 2.79738 6.69638 2.79738C6.70907 2.79738 6.72001 2.79125 6.73226 2.79037C6.75676 2.79562 6.78038 2.80525 6.80619 2.80525C6.91119 2.80525 6.98469 2.7615 7.06432 2.69762C7.15269 2.62675 7.24107 2.55587 7.32507 2.47887C7.41782 2.39531 7.49132 2.29381 7.56701 2.1945C7.56176 2.20106 7.55694 2.20762 7.55169 2.21419C7.67419 2.05537 7.79057 1.89394 7.90957 1.73337C7.95638 1.67475 8.00538 1.61656 8.05744 1.561C8.10294 1.60738 8.14626 1.65638 8.18651 1.70669C8.27926 1.82219 8.37463 1.93681 8.46913 2.05144C8.57151 2.17481 8.67826 2.29119 8.79201 2.40494C8.84538 2.45831 8.89351 2.51606 8.94688 2.56856C8.99063 2.61231 9.04182 2.64863 9.09213 2.6845C9.12669 2.71688 9.15688 2.75231 9.18926 2.78775C9.32401 2.933 9.52088 3.00475 9.71644 2.95488C9.86694 2.91638 9.96582 2.80875 10.0673 2.70025C10.1233 2.63987 10.1793 2.57862 10.2327 2.51562C10.4733 2.23081 10.696 1.92981 10.9235 1.63362C10.9406 1.61131 10.9581 1.58944 10.9751 1.56756C10.9699 2.1 10.9646 2.63244 10.9589 3.16488C10.9554 3.5385 10.9694 3.91256 10.9791 4.28619C10.9878 4.65106 10.9896 5.01638 10.9983 5.38038C11.0158 6.11581 11.0167 6.85125 11.0272 7.58669C11.0377 8.31337 11.0246 9.04094 11.0552 9.76675C11.0771 10.2777 11.1226 10.7874 11.1383 11.2989C11.1501 11.6716 11.1462 12.0444 11.1423 12.4171C11.0561 12.3537 10.9681 12.2938 10.8815 12.2312C10.8325 12.187 10.787 12.1389 10.7402 12.0903ZM4.87944 6.99213C4.87944 6.78344 5.05794 6.622 5.27101 6.61719C5.58163 6.60975 5.89444 6.61238 6.20419 6.59356C6.48507 6.57738 6.76638 6.56775 7.04726 6.559C7.18113 6.55462 7.31413 6.56337 7.44757 6.56556C7.60682 6.56819 7.76607 6.56075 7.92488 6.552C8.16113 6.53844 8.39782 6.53362 8.63494 6.52837C8.63801 6.52837 8.64063 6.52837 8.64369 6.52837C8.87076 6.52837 9.05932 6.72 9.05932 6.93525C9.05932 7.16275 8.86594 7.33556 8.63451 7.34212C8.39038 7.34956 8.14582 7.36225 7.90169 7.36575C7.60682 7.37013 7.31326 7.35044 7.01926 7.34913C6.74276 7.3465 6.46407 7.35 6.18669 7.35262C5.88132 7.35525 5.57638 7.35612 5.27101 7.36619C5.05707 7.37406 4.87944 7.19119 4.87944 6.99213ZM9.10394 5.51075C9.10394 5.74787 8.90794 5.936 8.67388 5.9395C8.43151 5.94388 8.18957 5.95962 7.94807 5.964C7.67944 5.96925 7.41126 5.97363 7.14263 5.96838C6.88101 5.964 6.61982 5.943 6.35819 5.94212C6.05282 5.94212 5.74613 5.943 5.44076 5.93863C5.21676 5.93513 5.02907 5.754 5.02907 5.52737C5.02907 5.30775 5.21632 5.11044 5.44076 5.11569C5.75576 5.12356 6.07119 5.13669 6.38619 5.14019C6.52619 5.14194 6.66619 5.14106 6.80663 5.13931C6.91863 5.13844 7.03063 5.13756 7.14263 5.13756C7.41913 5.13844 7.69607 5.12356 7.97257 5.12006C8.20619 5.11656 8.43938 5.08594 8.67388 5.08069C8.67694 5.08069 8.67957 5.08069 8.68263 5.08069C8.91276 5.08069 9.10394 5.28325 9.10394 5.51075ZM9.01994 8.21319C9.07594 8.30856 9.09169 8.42494 9.06194 8.53213C9.03307 8.63538 8.96394 8.72462 8.87207 8.77887C8.80732 8.8165 8.73819 8.83487 8.66294 8.83575C8.59382 8.82656 8.52557 8.81737 8.45732 8.80644C8.38951 8.80075 8.32169 8.80075 8.25432 8.79988C8.14669 8.79813 8.03907 8.78937 7.93144 8.78675C7.65844 8.78062 7.38413 8.785 7.11113 8.785C6.52444 8.785 5.94038 8.83312 5.35413 8.82C5.15463 8.81562 4.98838 8.65725 4.98838 8.45513C4.98838 8.26088 5.15463 8.08281 5.35413 8.08937C5.68838 8.10075 6.02044 8.10075 6.35469 8.08325C6.65657 8.06837 6.95801 8.04562 7.25988 8.02725C7.54513 8.00975 7.83169 8.00888 8.11782 7.98875C8.18519 7.98438 8.25213 7.98219 8.31951 7.98219C8.34926 7.98219 8.37857 7.98262 8.40832 7.9835C8.50457 7.98656 8.59907 7.99881 8.69444 8.01281C8.72069 8.01631 8.74738 8.01981 8.77363 8.02375C8.87294 8.03644 8.97182 8.13006 9.01994 8.21319Z" fill="#FB923C"/>
</svg>
