<svg width="30" height="30" viewBox="0 0 30 30" fill="none" xmlns="http://www.w3.org/2000/svg">
<path d="M13.2675 4.37448C13.3471 4.29296 13.4422 4.22821 13.5473 4.18406C13.6524 4.13991 13.7652 4.11726 13.8791 4.11743C13.9931 4.11761 14.1058 4.14061 14.2108 4.18508C14.3157 4.22955 14.4106 4.29459 14.49 4.37635L24.2062 14.3457C24.3769 14.5208 24.4724 14.7556 24.4724 15.0001C24.4724 15.2446 24.3769 15.4794 24.2062 15.6545L14.49 25.6239C14.4105 25.7055 14.3155 25.7704 14.2105 25.8147C14.1055 25.859 13.9927 25.8818 13.8787 25.8818C13.7648 25.8818 13.652 25.859 13.547 25.8147C13.442 25.7704 13.347 25.7055 13.2675 25.6239C13.1039 25.4564 13.0124 25.2317 13.0124 24.9976C13.0124 24.7636 13.1039 24.5388 13.2675 24.3714L22.4044 15.0001L13.2675 5.6251C13.1045 5.45775 13.0133 5.23339 13.0133 4.99979C13.0133 4.76619 13.1045 4.54182 13.2675 4.37448V4.37448ZM5.76749 4.37448C5.84711 4.29296 5.94225 4.22821 6.0473 4.18406C6.15235 4.13991 6.26518 4.11726 6.37913 4.11743C6.49309 4.11761 6.60585 4.14061 6.71076 4.18508C6.81568 4.22955 6.91062 4.29459 6.98999 4.37635L16.7062 14.3457C16.8769 14.5208 16.9724 14.7556 16.9724 15.0001C16.9724 15.2446 16.8769 15.4794 16.7062 15.6545L6.98999 25.6239C6.9105 25.7055 6.81545 25.7704 6.71047 25.8147C6.60549 25.859 6.49269 25.8818 6.37874 25.8818C6.26479 25.8818 6.15199 25.859 6.04701 25.8147C5.94202 25.7704 5.84698 25.7055 5.76749 25.6239C5.60395 25.4564 5.51239 25.2317 5.51239 24.9976C5.51239 24.7636 5.60395 24.5388 5.76749 24.3714L14.9044 15.0001L5.76749 5.6251C5.60451 5.45775 5.5133 5.23339 5.5133 4.99979C5.5133 4.76619 5.60451 4.54182 5.76749 4.37448V4.37448Z" fill="black"/>
</svg>
