<svg width="50" height="50" viewBox="0 0 50 50" fill="none" xmlns="http://www.w3.org/2000/svg">
<path d="M15.2517 14.5924C15.2517 8.25269 17.4787 1.36984 25.1138 1.36984C32.7488 1.36984 34.9766 8.25269 34.9766 14.5924C34.9766 14.8343 34.9598 15.0707 34.9454 15.3078C35.3323 14.1094 35.5542 12.8228 35.5542 11.4778C35.5542 5.13891 30.8799 0 25.1138 0C19.3484 0 14.6749 5.13891 14.6749 11.4778C14.6749 12.8236 14.8952 14.1094 15.2821 15.3078C15.2693 15.0707 15.2517 14.8343 15.2517 14.5924Z" fill="#8E8666"/>
<path d="M23.188 1.55166C23.2368 1.08223 23.3025 0.621607 23.3834 0.1698C18.4424 1.07822 14.6749 5.78855 14.6749 11.477C14.6749 12.8228 14.8952 14.1085 15.2821 15.3069C15.2693 15.0698 15.2525 14.8335 15.2525 14.5916C15.2517 8.82623 17.1094 2.6283 23.188 1.55166Z" fill="#A89F7B"/>
<path d="M7.49087 11.5483V41.4053C7.49087 47.0408 11.8303 50 17.4627 50H32.7664C38.3996 50 42.7382 47.0408 42.7382 41.4053V11.5483H7.49087Z" fill="#EAE3B0"/>
<path d="M11.6741 11.5483L7.26176 41.4309C7.26176 47.0665 11.8303 50 17.4627 50H32.7664C38.3996 50 42.7382 47.0408 42.7382 41.4053V11.5483H11.6741Z" fill="#DDD694"/>
<path d="M17.1038 50H32.7664C38.3996 50 42.7382 47.0408 42.7382 41.4053V11.5483H14.7006" fill="#CCC27F"/>
<path d="M42.7382 41.1882V11.5483H14.7006" fill="#C6B56F"/>
<path d="M42.7382 15.5537H7.49087V21.1612H42.7382V15.5537Z" fill="#3592AF"/>
<path d="M7.49087 21.1612H42.7382V15.5537" fill="#277BA0"/>
<path d="M42.7382 25.1674H7.49087V30.775H42.7382V25.1674Z" fill="#3592AF"/>
<path d="M7.49087 30.7742H42.7382V25.1666" fill="#277BA0"/>
<path d="M42.7382 34.7803H7.49087V40.3879H42.7382V34.7803Z" fill="#3592AF"/>
<path d="M7.49087 40.3871H42.7382V34.7795" fill="#277BA0"/>
<path d="M7.74802 44.3925C8.90237 47.9324 12.8044 50 17.4627 50H32.7664C37.4231 50 41.2202 47.918 42.2664 44.3925H7.74802Z" fill="#C9552D"/>
<path d="M7.74802 44.3925C8.96806 47.5968 12.8044 47.5968 17.4627 47.5968H32.7664C37.4231 47.5968 41.0448 47.5968 42.2664 44.3925H7.74802Z" fill="#D86639"/>
<path d="M17.1038 18.6074C17.1038 19.6119 16.108 20.4274 15.1019 20.4274C14.0957 20.4274 13.0984 19.6111 13.0984 18.6074V13.1456C13.0984 12.1403 14.0957 12.0538 15.1019 12.0538C16.108 12.0538 17.1038 12.1403 17.1038 13.1456V18.6074Z" fill="#186689"/>
<path d="M17.1038 16.9372C17.1038 17.9433 16.2122 19.0624 15.2068 19.0624C13.8242 19.0624 13.0984 17.9433 13.0984 16.9372V11.8199C13.0984 10.8137 14.1238 10.6888 15.1291 10.6888C16.1345 10.6888 17.1038 11.5628 17.1038 12.5689V16.9372Z" fill="#D86639"/>
<path d="M15.1291 10.6888C16.1353 10.6888 17.1038 10.7745 17.1038 11.7806V17.2408C17.1038 18.2477 16.213 19.0616 15.2068 19.0616" fill="#C9552D"/>
<path d="M15.8621 17.0148C15.8621 17.5043 15.4648 18.4023 14.9753 18.4023C14.4851 18.4023 14.0869 17.5043 14.0869 17.0148C14.0869 16.5254 14.4851 16.1281 14.9753 16.1281C15.4648 16.1273 15.8621 16.5246 15.8621 17.0148Z" fill="#B54523"/>
<path d="M14.9745 17.9001C15.4647 17.9001 15.8621 17.5027 15.8621 17.0125C15.8621 16.5223 15.4647 16.1249 14.9745 16.1249C14.4843 16.1249 14.0869 16.5223 14.0869 17.0125C14.0869 17.5027 14.4843 17.9001 14.9745 17.9001Z" fill="#DDDAD9"/>
<path d="M14.3465 16.3876C14.6941 16.04 15.2565 16.0408 15.6026 16.3876C15.9486 16.7337 15.9486 17.2953 15.6026 17.6421" fill="#C9C6C5"/>
<path d="M16.5863 15.8469H16.0239C15.9799 15.8469 15.9422 15.8085 15.9422 15.7636C15.9422 15.7171 15.9799 15.6803 16.0239 15.6803H16.5863C16.6344 15.6803 16.6696 15.7179 16.6696 15.7636C16.6696 15.8085 16.6336 15.8469 16.5863 15.8469ZM15.3582 15.8469H14.6933C14.6477 15.8469 14.61 15.8085 14.61 15.7636C14.61 15.7171 14.6477 15.6803 14.6933 15.6803H15.3582C15.4055 15.6803 15.4424 15.7179 15.4424 15.7636C15.4432 15.8085 15.4055 15.8469 15.3582 15.8469ZM14.0277 15.8469H13.362C13.3163 15.8469 13.2786 15.8085 13.2786 15.7636C13.2786 15.7171 13.3163 15.6803 13.362 15.6803H14.0277C14.0741 15.6803 14.111 15.7179 14.111 15.7636C14.1118 15.8085 14.0741 15.8469 14.0277 15.8469Z" fill="#DDD694"/>
<path d="M16.5863 15.3607H16.0239C15.9799 15.3607 15.9422 15.3238 15.9422 15.2773C15.9422 15.2301 15.9799 15.194 16.0239 15.194H16.5863C16.6344 15.194 16.6696 15.2301 16.6696 15.2773C16.6696 15.3238 16.6336 15.3607 16.5863 15.3607ZM15.3582 15.3607H14.6933C14.6477 15.3607 14.61 15.3238 14.61 15.2773C14.61 15.2301 14.6477 15.194 14.6933 15.194H15.3582C15.4055 15.194 15.4424 15.2301 15.4424 15.2773C15.4432 15.3238 15.4055 15.3607 15.3582 15.3607ZM14.0277 15.3607H13.362C13.3163 15.3607 13.2786 15.3238 13.2786 15.2773C13.2786 15.2301 13.3163 15.194 13.362 15.194H14.0277C14.0741 15.194 14.111 15.2301 14.111 15.2773C14.1118 15.3238 14.0741 15.3607 14.0277 15.3607Z" fill="#DDD694"/>
<path d="M37.1307 18.6074C37.1307 19.6119 36.1342 20.4274 35.128 20.4274C34.1219 20.4274 33.1253 19.6111 33.1253 18.6074V13.1456C33.1253 12.1403 34.1219 12.0538 35.128 12.0538C36.1342 12.0538 37.1307 12.1403 37.1307 13.1456V18.6074Z" fill="#186689"/>
<path d="M37.1307 16.9372C37.1307 17.9433 36.3016 19.0624 35.2954 19.0624C33.9128 19.0624 33.1253 17.9433 33.1253 16.9372V11.7814C33.1253 10.7753 34.2757 10.6896 35.281 10.6896C36.2872 10.6896 37.1307 11.5635 37.1307 12.5697V16.9372Z" fill="#D86639"/>
<path d="M35.281 10.6888C36.2872 10.6888 37.1307 10.7745 37.1307 11.7806V17.2408C37.1307 18.2477 36.3016 19.0616 35.2954 19.0616" fill="#C9552D"/>
<path d="M36.1414 17.0148C36.1414 17.5043 35.744 18.4023 35.2546 18.4023C34.7651 18.4023 34.367 17.5043 34.367 17.0148C34.367 16.5254 34.7651 16.1281 35.2546 16.1281C35.744 16.1281 36.1414 16.5246 36.1414 17.0148Z" fill="#B54523"/>
<path d="M35.2538 17.9001C35.744 17.9001 36.1414 17.5027 36.1414 17.0125C36.1414 16.5223 35.744 16.1249 35.2538 16.1249C34.7636 16.1249 34.3662 16.5223 34.3662 17.0125C34.3662 17.5027 34.7636 17.9001 35.2538 17.9001Z" fill="#DDDAD9"/>
<path d="M34.6265 16.3876C34.9726 16.04 35.5358 16.0408 35.881 16.3876C36.2271 16.7337 36.2271 17.2953 35.881 17.6421" fill="#C9C6C5"/>
<path d="M36.8655 15.8469H36.304C36.2583 15.8469 36.2215 15.8085 36.2215 15.7636C36.2215 15.7171 36.2583 15.6803 36.304 15.6803H36.8655C36.9128 15.6803 36.9497 15.7179 36.9497 15.7636C36.9497 15.8085 36.9128 15.8469 36.8655 15.8469ZM35.6391 15.8469H34.9726C34.9277 15.8469 34.8893 15.8085 34.8893 15.7636C34.8893 15.7171 34.9277 15.6803 34.9726 15.6803H35.6391C35.6864 15.6803 35.7224 15.7179 35.7224 15.7636C35.7216 15.8085 35.6856 15.8469 35.6391 15.8469ZM34.3077 15.8469H33.6428C33.5956 15.8469 33.5587 15.8085 33.5587 15.7636C33.5587 15.7171 33.5964 15.6803 33.6428 15.6803H34.3077C34.3534 15.6803 34.391 15.7179 34.391 15.7636C34.3902 15.8085 34.3526 15.8469 34.3077 15.8469Z" fill="#DDD694"/>
<path d="M36.8655 15.3607H36.304C36.2583 15.3607 36.2215 15.3238 36.2215 15.2773C36.2215 15.2301 36.2583 15.194 36.304 15.194H36.8655C36.9128 15.194 36.9497 15.2301 36.9497 15.2773C36.9497 15.3238 36.9128 15.3607 36.8655 15.3607ZM35.6391 15.3607H34.9726C34.9277 15.3607 34.8893 15.3238 34.8893 15.2773C34.8893 15.2301 34.9277 15.194 34.9726 15.194H35.6391C35.6864 15.194 35.7224 15.2301 35.7224 15.2773C35.7216 15.3238 35.6856 15.3607 35.6391 15.3607ZM34.3077 15.3607H33.6428C33.5956 15.3607 33.5587 15.3238 33.5587 15.2773C33.5587 15.2301 33.5964 15.194 33.6428 15.194H34.3077C34.3534 15.194 34.391 15.2301 34.391 15.2773C34.3902 15.3238 34.3526 15.3607 34.3077 15.3607Z" fill="#DDD694"/>
<path d="M21.3183 45.1447H20.4971C20.4411 45.1447 20.3954 45.1911 20.3954 45.248C20.3954 45.3041 20.4411 45.3505 20.4971 45.3505H21.3183C21.3751 45.3505 21.4216 45.3041 21.4216 45.248C21.4216 45.1911 21.3751 45.1447 21.3183 45.1447Z" fill="#DDD694"/>
<path d="M18.0346 45.1447H17.2143C17.1575 45.1447 17.111 45.1911 17.111 45.248C17.111 45.3041 17.1575 45.3505 17.2143 45.3505H18.0346C18.0915 45.3505 18.1372 45.3041 18.1372 45.248C18.1372 45.1911 18.0915 45.1447 18.0346 45.1447Z" fill="#DDD694"/>
<path d="M26.2433 45.1447H25.4222C25.3661 45.1447 25.3196 45.1911 25.3196 45.248C25.3196 45.3041 25.3661 45.3505 25.4222 45.3505H26.2433C26.2993 45.3505 26.345 45.3041 26.345 45.248C26.345 45.1911 26.2993 45.1447 26.2433 45.1447Z" fill="#DDD694"/>
<path d="M22.9597 45.1447H22.1402C22.0825 45.1447 22.0368 45.1911 22.0368 45.248C22.0368 45.3041 22.0825 45.3505 22.1402 45.3505H22.9597C23.0173 45.3505 23.063 45.3041 23.063 45.248C23.0622 45.1911 23.0173 45.1447 22.9597 45.1447Z" fill="#DDD694"/>
<path d="M24.6003 45.1447H23.7808C23.7247 45.1447 23.6774 45.1911 23.6774 45.248C23.6774 45.3041 23.7247 45.3505 23.7808 45.3505H24.6003C24.6579 45.3505 24.7036 45.3041 24.7036 45.248C24.7036 45.1911 24.6587 45.1447 24.6003 45.1447Z" fill="#DDD694"/>
<path d="M19.6768 45.1447H18.8557C18.7997 45.1447 18.7524 45.1911 18.7524 45.248C18.7524 45.3041 18.7997 45.3505 18.8557 45.3505H19.6768C19.7329 45.3505 19.7786 45.3041 19.7786 45.248C19.7786 45.1911 19.7329 45.1447 19.6768 45.1447Z" fill="#DDD694"/>
<path d="M16.3924 45.1447H15.5729C15.5153 45.1447 15.4696 45.1911 15.4696 45.248C15.4696 45.3041 15.5153 45.3505 15.5729 45.3505H16.3924C16.4501 45.3505 16.4958 45.3041 16.4958 45.248C16.4958 45.1911 16.4509 45.1447 16.3924 45.1447Z" fill="#DDD694"/>
<path d="M9.82681 45.1447H9.00651C8.94883 45.1447 8.90317 45.1911 8.90317 45.248C8.90317 45.3041 8.94883 45.3505 9.00651 45.3505H9.82681C9.88369 45.3505 9.92935 45.3041 9.92935 45.248C9.92935 45.1911 9.88369 45.1447 9.82681 45.1447Z" fill="#DDD694"/>
<path d="M11.469 45.1447H10.6471C10.591 45.1447 10.5446 45.1911 10.5446 45.248C10.5446 45.3041 10.591 45.3505 10.6471 45.3505H11.4682C11.5243 45.3505 11.5699 45.3041 11.5699 45.248C11.5707 45.1911 11.5251 45.1447 11.469 45.1447Z" fill="#DDD694"/>
<path d="M14.751 45.1447H13.9307C13.8738 45.1447 13.8282 45.1911 13.8282 45.248C13.8282 45.3041 13.8738 45.3505 13.9307 45.3505H14.0845V45.7086C14.0845 45.7655 14.1302 45.8111 14.1863 45.8111C14.2439 45.8111 14.2896 45.7655 14.2896 45.7086V45.3505H14.751C14.8079 45.3505 14.8544 45.3041 14.8544 45.248C14.8544 45.1911 14.8087 45.1447 14.751 45.1447Z" fill="#DDD694"/>
<path d="M13.1104 45.1447H12.2893C12.2332 45.1447 12.1876 45.1911 12.1876 45.248C12.1876 45.3041 12.2332 45.3505 12.2893 45.3505H13.1104C13.1665 45.3505 13.2122 45.3041 13.2122 45.248C13.2122 45.1911 13.1665 45.1447 13.1104 45.1447Z" fill="#DDD694"/>
<path d="M29.5261 45.1447H28.7058C28.6489 45.1447 28.6032 45.1911 28.6032 45.248C28.6032 45.3041 28.6489 45.3505 28.7058 45.3505H29.5261C29.583 45.3505 29.6294 45.3041 29.6294 45.248C29.6294 45.1911 29.583 45.1447 29.5261 45.1447Z" fill="#DDD694"/>
<path d="M36.0925 45.1447H35.273C35.2153 45.1447 35.1697 45.1911 35.1697 45.248C35.1697 45.3041 35.2153 45.3505 35.273 45.3505H35.9395V45.7086C35.9395 45.7655 35.9852 45.8111 36.0412 45.8111C36.0989 45.8111 36.1446 45.7655 36.1446 45.7086V45.3497C36.1446 45.3433 36.1382 45.3385 36.1366 45.3329C36.1694 45.3161 36.1958 45.2872 36.1958 45.2488C36.1958 45.1911 36.1486 45.1447 36.0925 45.1447Z" fill="#DDD694"/>
<path d="M27.8847 45.1447H27.0636C27.0075 45.1447 26.9618 45.1911 26.9618 45.248C26.9618 45.3041 27.0075 45.3505 27.0636 45.3505H27.8847C27.9408 45.3505 27.9872 45.3041 27.9872 45.248C27.9872 45.1911 27.9408 45.1447 27.8847 45.1447Z" fill="#DDD694"/>
<path d="M41.0183 45.1447H40.1972C40.1412 45.1447 40.0947 45.1911 40.0947 45.248C40.0947 45.3041 40.1412 45.3505 40.1972 45.3505H41.0183C41.0744 45.3505 41.1209 45.3041 41.1209 45.248C41.1201 45.1911 41.0744 45.1447 41.0183 45.1447Z" fill="#DDD694"/>
<path d="M37.7339 45.1447H36.9144C36.8567 45.1447 36.8111 45.1911 36.8111 45.248C36.8111 45.3041 36.8567 45.3505 36.9144 45.3505H37.7339C37.7916 45.3505 37.8373 45.3041 37.8373 45.248C37.8373 45.1911 37.7916 45.1447 37.7339 45.1447Z" fill="#DDD694"/>
<path d="M32.8097 45.1447H31.9886C31.9325 45.1447 31.8853 45.1911 31.8853 45.248C31.8853 45.3041 31.9325 45.3505 31.9886 45.3505H32.8097C32.8658 45.3505 32.9114 45.3041 32.9114 45.248C32.9114 45.1911 32.8666 45.1447 32.8097 45.1447Z" fill="#DDD694"/>
<path d="M31.1691 45.1447H30.348C30.2911 45.1447 30.2447 45.1911 30.2447 45.248C30.2447 45.3041 30.2911 45.3505 30.348 45.3505H31.1691C31.2252 45.3505 31.2708 45.3041 31.2708 45.248C31.2708 45.1911 31.2252 45.1447 31.1691 45.1447Z" fill="#DDD694"/>
<path d="M34.4511 45.1447H33.63C33.5739 45.1447 33.5283 45.1911 33.5283 45.248C33.5283 45.3041 33.5739 45.3505 33.63 45.3505H34.4511C34.5072 45.3505 34.5536 45.3041 34.5536 45.248C34.5536 45.1911 34.508 45.1447 34.4511 45.1447Z" fill="#DDD694"/>
<path d="M39.3761 45.1447H38.5558C38.4989 45.1447 38.4533 45.1911 38.4533 45.248C38.4533 45.3041 38.4989 45.3505 38.5558 45.3505H39.3761C39.433 45.3505 39.4787 45.3041 39.4787 45.248C39.4787 45.1911 39.433 45.1447 39.3761 45.1447Z" fill="#DDD694"/>
<path d="M14.1863 48.0686C14.1302 48.0686 14.0845 48.1143 14.0845 48.1703V48.9914C14.0845 49.0475 14.1302 49.094 14.1863 49.094C14.2439 49.094 14.2896 49.0475 14.2896 48.9914V48.1703C14.2896 48.1143 14.2447 48.0686 14.1863 48.0686Z" fill="#DDD694"/>
<path d="M14.1863 46.4272C14.1302 46.4272 14.0845 46.4736 14.0845 46.5297V47.3508C14.0845 47.4069 14.1302 47.4526 14.1863 47.4526C14.2439 47.4526 14.2896 47.4069 14.2896 47.3508V46.5297C14.2896 46.4728 14.2447 46.4272 14.1863 46.4272Z" fill="#DDD694"/>
<path d="M36.0412 48.0686C35.9852 48.0686 35.9395 48.1143 35.9395 48.1703V48.9914C35.9395 49.0475 35.9852 49.094 36.0412 49.094C36.0989 49.094 36.1446 49.0475 36.1446 48.9914V48.1703C36.1446 48.1143 36.0989 48.0686 36.0412 48.0686Z" fill="#DDD694"/>
<path d="M36.0412 46.4272C35.9852 46.4272 35.9395 46.4736 35.9395 46.5297V47.3508C35.9395 47.4069 35.9852 47.4526 36.0412 47.4526C36.0989 47.4526 36.1446 47.4069 36.1446 47.3508V46.5297C36.1446 46.4728 36.0989 46.4272 36.0412 46.4272Z" fill="#DDD694"/>
</svg>
