<svg width="50" height="50" viewBox="0 0 50 50" fill="none" xmlns="http://www.w3.org/2000/svg">
<g clip-path="url(#clip0_15_1112)">
<path d="M32.6039 20.7053C32.6039 20.7053 37.1434 10.9803 37.9456 8.87188C38.0519 8.59234 38.1262 8.25797 38.1735 7.88147C38.8653 2.37171 33.1055 -1.68717 28.0908 0.697909L25.2552 2.04659C25.0937 2.12338 24.9063 2.12338 24.7448 2.04659L21.9092 0.697909C16.8945 -1.68717 11.1347 2.37171 11.8265 7.88147C11.8737 8.25797 11.9481 8.59234 12.0544 8.87188C12.8566 10.9803 17.3961 20.7053 17.3961 20.7053H32.6039Z" fill="#FF628B"/>
<path d="M28.0908 0.697909L25.2551 2.04659C25.1724 2.08595 25.0829 2.10446 24.9936 2.10349V20.7053H32.6039C32.6039 20.7053 37.1434 10.9803 37.9456 8.87188C38.0519 8.59234 38.1262 8.25797 38.1735 7.88147C38.8653 2.37171 33.1055 -1.68717 28.0908 0.697909Z" fill="#CF476A"/>
<path d="M43.9742 47.0152L40.5144 31.4463C40.508 31.4174 40.5015 31.3885 40.495 31.3598C39.5831 27.3173 37.5703 23.6057 34.7404 20.5782L33.3485 19.0892H16.6514L15.2535 20.5844C12.5335 23.4941 10.5542 27.0344 9.61174 30.9043C9.56782 31.0844 9.52583 31.2652 9.4855 31.4463L6.02576 47.0152C5.68531 48.5471 6.85098 50 8.42009 50H41.5799C43.149 50 44.3147 48.5469 43.9742 47.0152Z" fill="#C1E8E6"/>
<path d="M43.9743 47.0151L40.5145 31.4461C40.508 31.4173 40.5017 31.3884 40.4952 31.3597C39.5831 27.3172 37.5705 23.6054 34.7405 20.5781L33.3486 19.0891H24.9936V50H41.5799C43.149 50 44.3146 48.5469 43.9743 47.0151Z" fill="#A0CFF1"/>
<path d="M24.9999 9.75858C26.5864 9.75858 27.8724 8.47253 27.8724 6.8861C27.8724 5.29967 26.5864 4.01361 24.9999 4.01361C23.4135 4.01361 22.1274 5.29967 22.1274 6.8861C22.1274 8.47253 23.4135 9.75858 24.9999 9.75858Z" fill="#C1E8E6"/>
<path d="M24.9999 4.01373C24.9977 4.01373 24.9956 4.01401 24.9934 4.01401V9.75843C24.9956 9.75843 24.9977 9.7587 24.9999 9.7587C26.5863 9.7587 27.8724 8.47259 27.8724 6.88622C27.8724 5.29985 26.5864 4.01373 24.9999 4.01373Z" fill="#A0CFF1"/>
</g>
<defs>
<clipPath id="clip0_15_1112">
<rect width="50" height="50" fill="white"/>
</clipPath>
</defs>
</svg>
